<svg xmlns="http://www.w3.org/2000/svg" viewBox="0 0 1600 900" width="1600" height="900"><rect width="1600" height="900" fill="#0a0e18"/><g font-family="monospace" fill="#cfe3fb">
    <circle cx="383" cy="501" r="1.21" fill="rgba(255,255,255,0.62)"/><circle cx="763" cy="49" r="0.56" fill="rgba(255,255,255,0.62)"/><circle cx="251" cy="524" r="0.84" fill="rgba(255,255,255,0.59)"/><circle cx="746" cy="558" r="1.24" fill="rgba(255,255,255,0.22)"/><circle cx="1046" cy="757" r="1.38" fill="rgba(255,255,255,0.57)"/><circle cx="842" cy="77" r="1.04" fill="rgba(255,255,255,0.16)"/><circle cx="425" cy="492" r="1.16" fill="rgba(255,255,255,0.19)"/><circle cx="1462" cy="231" r="1.27" fill="rgba(255,255,255,0.51)"/><circle cx="8" cy="488" r="0.55" fill="rgba(255,255,255,0.62)"/><circle cx="559" cy="822" r="0.85" fill="rgba(255,255,255,0.59)"/><circle cx="438" cy="206" r="0.98" fill="rgba(255,255,255,0.46)"/><circle cx="319" cy="251" r="0.46" fill="rgba(255,255,255,0.17)"/><circle cx="1203" cy="567" r="0.74" fill="rgba(255,255,255,0.58)"/><circle cx="626" cy="163" r="0.57" fill="rgba(255,255,255,0.29)"/><circle cx="798" cy="731" r="1.26" fill="rgba(255,255,255,0.19)"/><circle cx="313" cy="333" r="0.96" fill="rgba(255,255,255,0.49)"/><circle cx="409" cy="241" r="1.03" fill="rgba(255,255,255,0.35)"/><circle cx="1152" cy="703" r="1.35" fill="rgba(255,255,255,0.38)"/><circle cx="161" cy="824" r="1.26" fill="rgba(255,255,255,0.55)"/><circle cx="793" cy="508" r="1.46" fill="rgba(255,255,255,0.24)"/><circle cx="1521" cy="62" r="1.41" fill="rgba(255,255,255,0.17)"/><circle cx="291" cy="763" r="0.67" fill="rgba(255,255,255,0.26)"/><circle cx="1264" cy="83" r="1.07" fill="rgba(255,255,255,0.28)"/><circle cx="467" cy="415" r="1.22" fill="rgba(255,255,255,0.40)"/><circle cx="1582" cy="894" r="1.21" fill="rgba(255,255,255,0.25)"/><circle cx="881" cy="220" r="0.88" fill="rgba(255,255,255,0.64)"/><circle cx="398" cy="303" r="0.33" fill="rgba(255,255,255,0.23)"/><circle cx="271" cy="427" r="0.74" fill="rgba(255,255,255,0.59)"/><circle cx="329" cy="54" r="0.72" fill="rgba(255,255,255,0.42)"/><circle cx="353" cy="874" r="0.76" fill="rgba(255,255,255,0.26)"/><circle cx="151" cy="211" r="1.27" fill="rgba(255,255,255,0.44)"/><circle cx="1235" cy="702" r="1.06" fill="rgba(255,255,255,0.21)"/><circle cx="778" cy="477" r="0.51" fill="rgba(255,255,255,0.53)"/><circle cx="165" cy="293" r="1.50" fill="rgba(255,255,255,0.37)"/><circle cx="1068" cy="74" r="1.46" fill="rgba(255,255,255,0.44)"/><circle cx="249" cy="615" r="1.19" fill="rgba(255,255,255,0.37)"/><circle cx="266" cy="504" r="0.83" fill="rgba(255,255,255,0.22)"/><circle cx="887" cy="262" r="0.41" fill="rgba(255,255,255,0.65)"/><circle cx="1515" cy="735" r="0.84" fill="rgba(255,255,255,0.62)"/><circle cx="476" cy="688" r="0.61" fill="rgba(255,255,255,0.18)"/><circle cx="427" cy="749" r="0.75" fill="rgba(255,255,255,0.49)"/><circle cx="279" cy="367" r="0.96" fill="rgba(255,255,255,0.23)"/><circle cx="1396" cy="156" r="0.31" fill="rgba(255,255,255,0.18)"/><circle cx="1351" cy="288" r="1.23" fill="rgba(255,255,255,0.51)"/><circle cx="1182" cy="101" r="0.41" fill="rgba(255,255,255,0.40)"/><circle cx="1175" cy="3" r="1.36" fill="rgba(255,255,255,0.28)"/><circle cx="451" cy="594" r="0.57" fill="rgba(255,255,255,0.32)"/><circle cx="1434" cy="168" r="0.41" fill="rgba(255,255,255,0.30)"/><circle cx="495" cy="243" r="0.91" fill="rgba(255,255,255,0.46)"/><circle cx="400" cy="400" r="1.43" fill="rgba(255,255,255,0.50)"/><circle cx="544" cy="587" r="1.07" fill="rgba(255,255,255,0.56)"/><circle cx="751" cy="131" r="0.49" fill="rgba(255,255,255,0.37)"/><circle cx="539" cy="670" r="0.34" fill="rgba(255,255,255,0.52)"/><circle cx="1166" cy="267" r="0.94" fill="rgba(255,255,255,0.22)"/><circle cx="1100" cy="427" r="0.90" fill="rgba(255,255,255,0.16)"/><circle cx="759" cy="222" r="1.37" fill="rgba(255,255,255,0.57)"/><circle cx="1225" cy="389" r="1.31" fill="rgba(255,255,255,0.49)"/><circle cx="568" cy="660" r="1.04" fill="rgba(255,255,255,0.62)"/><circle cx="1412" cy="719" r="1.16" fill="rgba(255,255,255,0.42)"/><circle cx="392" cy="858" r="1.35" fill="rgba(255,255,255,0.60)"/><circle cx="1520" cy="847" r="1.28" fill="rgba(255,255,255,0.53)"/><circle cx="1381" cy="612" r="1.48" fill="rgba(255,255,255,0.61)"/><circle cx="1537" cy="7" r="0.68" fill="rgba(255,255,255,0.51)"/><circle cx="1255" cy="428" r="0.63" fill="rgba(255,255,255,0.37)"/><circle cx="1568" cy="7" r="1.01" fill="rgba(255,255,255,0.22)"/><circle cx="1303" cy="800" r="0.77" fill="rgba(255,255,255,0.43)"/><circle cx="1176" cy="15" r="1.39" fill="rgba(255,255,255,0.17)"/><circle cx="1016" cy="116" r="0.95" fill="rgba(255,255,255,0.15)"/><circle cx="870" cy="205" r="1.32" fill="rgba(255,255,255,0.56)"/><circle cx="117" cy="457" r="1.24" fill="rgba(255,255,255,0.16)"/>
    <text x="80" y="90" font-size="28" text-anchor="start" fill="#7fb0e0" letter-spacing="1">TERMINAL VELOCITY</text><text x="80" y="126" font-size="19" text-anchor="start" fill="#cfe3fb" letter-spacing="1">when drag rises to balance weight, the fall stops speeding up</text>
    <!-- parachute + payload + force balance -->
    <path d="M 360 300 Q 500 200 640 300 Q 570 300 500 330 Q 430 300 360 300 Z" fill="rgba(207,227,251,0.10)" stroke="#cfe3fb" stroke-width="2.4"/>
    <line x1="400" y1="305" x2="490" y2="470" stroke="#cfe3fb" stroke-width="1.4"/><line x1="600" y1="305" x2="510" y2="470" stroke="#cfe3fb" stroke-width="1.4"/>
    <rect x="470" y="470" width="60" height="60" rx="8" fill="rgba(127,176,224,0.12)" stroke="#7fb0e0" stroke-width="2"/>
    <line x1="500" y1="470" x2="500" y2="300" stroke="#7fb0e0" stroke-width="2.4"/><polygon points="500,300 505,313 495,313" fill="#7fb0e0"/><text x="520" y="390" font-size="16" text-anchor="start" fill="#7fb0e0" letter-spacing="1">DRAG ∝ v²</text>
    <line x1="500" y1="530" x2="500" y2="700" stroke="#ffd27f" stroke-width="2.4"/><polygon points="500,700 495,687 505,687" fill="#ffd27f"/><text x="520" y="620" font-size="16" text-anchor="start" fill="#ffd27f" letter-spacing="1">WEIGHT = m·g</text>
    <!-- balance graph -->
    <g transform="translate(900,240)">
      <line x1="0" y1="460" x2="560" y2="460" stroke="#7fb0e0" stroke-width="2"/><line x1="0" y1="460" x2="0" y2="0" stroke="#7fb0e0" stroke-width="2"/>
      <text x="280" y="500" font-size="15" text-anchor="middle" fill="#cfe3fb" letter-spacing="1">speed →</text>
      <text x="-30" y="230" font-size="15" fill="#cfe3fb" transform="rotate(-90 -30 230)" text-anchor="middle">force →</text>
      <path d="M 0 460 Q 300 460 520 40" fill="none" stroke="#7fb0e0" stroke-width="2.6"/>
      <line x1="0" y1="250" x2="560" y2="250" stroke="#ffd27f" stroke-width="1.6"/><text x="560" y="240" font-size="14" text-anchor="end" fill="#ffd27f" letter-spacing="1">weight</text>
      <text x="360" y="120" font-size="14" text-anchor="middle" fill="#7fb0e0" letter-spacing="1">drag</text>
      <circle cx="356" cy="250" r="8" fill="#ffffff"/>
      <text x="356" y="300" font-size="14" text-anchor="middle" fill="#ffffff" letter-spacing="1">TERMINAL</text><text x="356" y="322" font-size="14" text-anchor="middle" fill="#ffffff" letter-spacing="1">VELOCITY</text>
    </g>
    <text x="800" y="850" font-size="17" text-anchor="middle" fill="#7fb0e0" letter-spacing="1">a bigger parachute enlarges the drag area → the balance is struck at a softer speed</text>
  </g></svg>