<?xml version="1.0" encoding="UTF-8" standalone="no"?>
<svg
   width="252.00558"
   height="51.0345"
   viewBox="0 0 252.00558 51.0345"
   fill="none"
   version="1.1"
   id="svg34"
   sodipodi:docname="logo (1).svg"
   inkscape:version="1.4 (e7c3feb100, 2024-10-09)"
   xmlns:inkscape="http://www.inkscape.org/namespaces/inkscape"
   xmlns:sodipodi="http://sodipodi.sourceforge.net/DTD/sodipodi-0.dtd"
   xmlns="http://www.w3.org/2000/svg"
   xmlns:svg="http://www.w3.org/2000/svg">
  <sodipodi:namedview
     id="namedview34"
     pagecolor="#ffffff"
     bordercolor="#000000"
     borderopacity="0.25"
     inkscape:showpageshadow="2"
     inkscape:pageopacity="0.0"
     inkscape:pagecheckerboard="0"
     inkscape:deskcolor="#d1d1d1"
     inkscape:zoom="3.8403909"
     inkscape:cx="143.60517"
     inkscape:cy="25.518236"
     inkscape:window-width="1280"
     inkscape:window-height="730"
     inkscape:window-x="0"
     inkscape:window-y="0"
     inkscape:window-maximized="1"
     inkscape:current-layer="svg34" />
  <g
     clip-path="none"
     id="g34"
     transform="translate(-10,-28.9741)">
    <path
       d="m 19.2304,45.2256 c -0.3117,0.1291 -0.9785,0.086 -1.4201,0.1807 -0.8918,0.086 -1.9136,0.3097 -2.8921,0.7054 -1.3767,0.5765 -2.8487,1.5916 -4.2255,2.3917 -0.0866,-1.2388 1.827,-2.8734 2.8921,-3.4068 -0.6235,-0.2667 -3.3337,-0.2667 -3.3337,-1.6347 0,-3.0541 3.022,-6.4524 6.3643,-6.4524 0.9784,0 2.2253,0.6195 2.2253,1.7723 0,0.2237 -0.8918,1.5916 -1.3767,2.254 -0.4936,-0.2236 -1.7838,-1.1528 -2.4505,-1.1528 -0.71,0 -2.2253,0.5334 -2.2253,1.3249 0,1.1528 5.204,1.3679 5.2992,1.3679 h 2.9354 c -0.3117,0.6194 -1.2036,1.9443 -1.7838,2.6498 z"
       fill="#976f33"
       id="path1" />
    <path
       d="M 25.638,48.5036 24.0794,32.1402 c 0,-0.2237 0.3117,-0.5764 0.4935,-0.7485 0.5802,-0.7484 1.4201,-1.5916 2.0435,-2.254 0.1386,1.0152 0.2252,2.125 0.3118,3.1402 0.3117,3.5789 0.8485,9.0248 1.2901,11.9413 0,0.086 0.2252,0.2667 0.3983,0.3097 0.4416,0.086 0.8486,0.4388 1.2902,0.4388 h 0.7533 v 3.5359 h -5.0308 z"
       fill="#976f33"
       id="path2" />
    <path
       d="m 39.3883,44.9674 v 3.536 H 36.808 c -0.5802,0 -1.2469,-0.8001 -1.3335,-1.2389 -0.2251,0.2667 -1.2036,1.2389 -1.6452,1.2389 h -4.494 v -3.536 h 5.7409 c 0.8053,0 0.6667,-2.297 0.7533,-2.3917 0.71,-0.9721 1.827,-2.125 2.8921,-3.1402 0.0433,1.2819 -0.7533,3.0026 -1.2036,4.7748 0.3983,0.3528 0.8919,0.7485 1.42,0.7485 0.2685,0 0.5369,-0.3097 0.7534,-0.3097 -0.0866,0 -0.1819,0.3097 -0.3117,0.3097 z"
       fill="#976f33"
       id="path3" />
    <path
       d="m 38.6696,48.5036 v -3.5359 h 0.8486 c 3.4722,-1.2389 10.6331,-7.6053 13.4819,-7.6053 1.6019,0 5.4291,2.7874 5.4291,4.6888 0,0.1806 -0.9784,1.7206 -1.3334,2.9165 h 2.182 v 3.5359 z m 7.6545,-12.4661 c -0.1819,0 -2.2686,-1.4626 -2.2686,-1.8583 0,-0.2667 1.9136,-2.125 2.2253,-2.125 0.3117,0 2.3552,1.8153 2.3552,2.125 0,0.5334 -2.0954,1.8583 -2.3119,1.8583 z m 4.6758,5.1705 c -2.0435,0 -4.4507,2.2541 -6.8579,3.4069 h 9.3949 c 0.1299,0.043 1.2902,-0.2667 1.2902,-0.8431 0,-1.3679 -3.1172,-2.5638 -3.8272,-2.5638 z"
       fill="#976f33"
       id="path4" />
    <path
       d="m 57.8058,48.5035 v -3.5359 h 4.8923 c 0.0866,-0.4904 -0.0433,-1.2389 0.2251,-1.5916 1.472,-1.8583 5.1174,-5.3943 7.4726,-5.3943 1.6885,0 2.0955,2.7445 2.0955,3.579 0,0.1807 0,0.7055 -0.0866,0.9722 -0.355,0.7484 -0.9785,1.5055 -1.4201,2.4347 h 2.667 v 3.5359 z m 9.3429,-12.8274 -2.2253,-1.8153 c 0.71,-0.7485 2.0435,-2.082 2.2253,-2.082 0.2252,0 1.6019,1.2819 2.4072,1.9874 -0.71,0.6624 -1.6885,1.4625 -2.4072,1.9013 z m 2.6237,7.4762 c -0.1818,-0.4388 -0.4416,-1.0152 -0.9352,-1.3249 -0.2684,-0.1291 -0.7533,-0.3097 -0.9351,-0.3097 -0.355,0 -2.9787,0.8431 -2.9787,1.6776 0,1.1098 2.2686,1.7723 2.7622,1.7723 0.2251,0 1.2469,-0.2237 1.7837,-0.4388 0.1819,-0.129 0.355,-0.3097 0.4416,-0.3527 0,-0.3528 -0.0433,-0.8431 -0.1299,-1.0152 z"
       fill="#976f33"
       id="path5" />
    <path
       d="m 79.7042,48.5034 c -0.5802,-0.3527 -0.3551,-1.4109 -0.7101,-2.0303 -0.4416,0.6194 -0.9351,1.3679 -1.5153,2.0303 h -5.2992 v -3.5359 h 6.4941 L 77.0718,34.136 79.7821,30.4194 c 0.0866,0.9722 0.3117,2.3401 0.355,2.9595 0.2684,2.8305 0.7533,7.0289 0.9785,10.5648 0.0432,0.7055 0.6234,1.0152 1.1602,1.0152 h 0.5802 v 3.5359 h -3.1605 z"
       fill="#976f33"
       id="path6" />
    <path
       d="m 91.6708,35.1942 c -0.4416,0.5334 -1.1603,1.5056 -1.7318,2.2111 -0.0866,0.086 -0.0866,0.1806 -0.0866,0.3957 l 0.7533,6.0997 -0.8486,4.4221 c -0.2251,0 -0.3983,0.1806 -0.6234,0.1806 h -7.6112 v -3.5359 h 6.5894 c 0.0866,-0.5334 0.1299,-0.8431 0.1299,-1.0582 0,-0.2151 -0.2251,-1.9873 -0.3983,-2.9595 -0.2251,-1.3249 -0.6234,-3.9833 -1.2036,-5.8846 -0.0866,-0.2667 -0.8052,-0.6195 -1.2901,-1.0152 0.7533,-1.5486 1.3334,-2.7014 2.4937,-4.2414 0,0.4388 0.0433,1.0152 0.3117,1.4109 0.3984,0.5334 1.2036,0.9292 1.8704,1.3249 0.7533,0.4904 1.6019,1.0152 2.4504,1.5056 -0.1818,0.3527 -0.4935,0.8001 -0.8052,1.1528 z"
       fill="#976f33"
       id="path7" />
    <path
       d="m 118.15,48.4604 h -13.707 c -0.225,0 -0.312,-0.129 -0.485,-0.129 -1.022,-0.043 -2.936,-1.4626 -3.117,-2.7445 -0.044,-0.1806 -0.044,-0.6624 -0.044,-0.8861 0,-1.5916 1.022,-5.833 2,-6.3234 l 0.182,0.1377 c 0,0.8431 -0.311,2.9595 -0.311,3.3122 0,0.1807 0.043,0.9292 0.225,1.3679 0.311,0.7055 2.138,1.6347 2.892,1.6347 h 11.793 c 0.13,-0.1807 0.269,-0.3098 0.269,-0.5334 0,-0.8432 -1.247,-2.6498 -1.516,-3.0972 l 1.827,-3.1832 c 0.892,0.8001 1.914,2.7874 1.914,4.0693 0,2.0304 -0.978,4.5081 -1.914,6.3664 z m -5.256,-12.294 -2.537,-1.3249 c -0.494,0.3097 -0.935,0.8001 -1.291,1.2389 -0.891,-0.3528 -1.87,-0.8432 -2.762,-1.368 0.494,-0.6194 1.689,-1.9873 2.001,-1.9873 0.225,0 2,1.2389 2.225,1.2389 0.182,0 1.108,-0.8862 1.645,-1.2389 l 2.624,1.3249 c -0.494,0.6624 -1.247,1.5486 -1.914,2.125 z"
       fill="#976f33"
       id="path8" />
    <path
       d="m 125.579,48.5036 -1.645,-13.662 c 0,-0.5764 2.139,-3.8026 2.58,-4.336 l 0.892,11.4079 c 0,2.2971 -0.225,4.1984 -1.827,6.5901 z"
       fill="#976f33"
       id="path9" />
    <path
       d="m 133.987,55.042 c -1.559,0 -6.988,-2.211 -7.473,-2.8305 v -0.3957 c 0.13,-0.086 0.13,-0.129 0.355,-0.129 0.398,0 2.979,1.0581 4.096,1.0581 1.645,0 7.611,-4.293 7.611,-6.7191 0,-1.0152 -3.204,-3.6219 -3.472,-3.7596 l 1.247,-3.5789 c 2.58,1.5055 3.913,4.422 3.913,6.7191 0,2.297 -2.182,9.6442 -6.277,9.6442 z"
       fill="#976f33"
       id="path10" />
    <path
       d="m 144.135,48.5036 -1.559,-16.3634 c 0,-0.2237 0.312,-0.5764 0.494,-0.7485 0.58,-0.7484 1.42,-1.5916 2.043,-2.254 0.139,1.0152 0.226,2.125 0.312,3.1402 0.312,3.5789 0.849,9.0248 1.29,11.9413 0,0.086 0.226,0.2667 0.399,0.3097 0.441,0.086 0.848,0.4388 1.29,0.4388 h 0.753 v 3.5359 h -5.031 z"
       fill="#976f33"
       id="path11" />
    <path
       d="m 164.163,45.0536 c -0.58,1.0152 -1.29,2.082 -1.957,3.0972 l -6.762,-2.4347 c -1.291,0.5334 -0.979,1.8583 -2.044,2.7874 h -5.568 v -3.5359 h 6.01 c 0.268,-0.6194 0.493,-1.0152 0.58,-1.4626 0.493,-1.5485 2.095,-3.9833 3.914,-4.8178 0.848,-0.3957 2.58,-1.4109 4.052,-1.3249 0.087,0.0861 0.225,0.1807 0.268,0.3097 0.442,1.411 1.247,3.6306 1.689,5.3943 0.087,0.2237 0.13,0.8861 0.13,1.0582 0,0.2237 -0.182,0.6624 -0.312,0.9291 z m -4.096,-4.0263 c -0.181,-0.1807 -0.268,-0.129 -0.493,-0.129 -0.225,0 -0.753,0.129 -0.979,0.2236 -0.355,0.1377 -0.753,0.3098 -1.117,0.5334 -0.086,0.0861 -0.311,0.2237 -0.311,0.3098 l 4.009,1.5916 c -0.225,-0.9292 -0.269,-1.8583 -1.109,-2.5208 z"
       fill="#976f33"
       id="path12" />
    <path
       d="m 174.086,55.4033 c -1.29,-0.0861 -2.849,0.7485 -4.321,1.7722 v -0.3097 c 0,-0.2237 0.892,-1.0582 1.377,-1.4625 -0.623,-0.2667 -1.42,-0.2237 -1.913,-0.5764 -0.044,-0.7485 0.398,-1.8583 1.29,-2.6498 0.225,-0.2237 0.623,-0.4388 0.892,-0.5765 0.268,-0.086 0.666,-0.2236 0.891,-0.2236 0.226,0 0.355,0.129 0.537,0.129 0.087,0.086 0.269,0.2667 0.355,0.3527 0,0.0861 0.13,0.0861 0.13,0.3098 0,0.2236 -0.355,0.6624 -0.623,1.0151 0,0 -0.13,-0.129 -0.13,-0.2237 -0.043,-0.086 -0.225,-0.1806 -0.398,-0.2667 -0.182,-0.086 -0.312,-0.129 -0.537,-0.129 -0.225,0 -0.624,0.1807 -0.979,0.3097 -0.086,0 -0.268,0.2237 -0.441,0.3958 -0.087,0.086 -0.087,-0.0431 -0.087,0.1806 0,0.2237 0.268,0.3958 0.442,0.4388 0.805,0.2237 2.225,0.3097 2.45,0.3097 0.225,0 0.667,0 1.732,-0.086 -0.182,0.3527 -0.398,0.8861 -0.667,1.2819 z"
       fill="#976f33"
       id="path13" />
    <path
       d="m 183.879,35.8137 c -0.043,0 -0.043,0.043 -0.268,0.043 -0.182,0 -0.494,-0.129 -0.753,-0.3097 -0.182,0.9722 -0.442,2.254 -0.806,3.2692 -0.355,0.9292 -1.42,2.3917 -1.42,2.6068 0,0.1807 0.269,0.4818 0.312,0.6194 0.849,1.4626 0.935,2.4348 0.935,3.536 0,0.2237 -0.086,1.9443 -0.268,2.9165 h -9.482 c -0.485,-0.2667 -0.666,-1.5916 -0.666,-2.2111 0,-0.1806 0.043,-0.9291 0.086,-1.5485 0.043,-0.3528 0.225,-0.8432 0.398,-1.2819 0.226,0.129 0.442,0.5764 0.667,0.8861 0.312,0.3958 0.753,0.4388 1.065,0.4388 1.247,0 3.559,-2.2541 4.269,-2.8735 -0.398,-0.9722 -2.667,-3.3123 -3.87,-4.0263 -0.269,0.3097 -0.312,0.7054 -0.537,1.0582 -1.334,-0.8431 -2.936,-1.7207 -4.226,-2.4347 -0.355,-0.2237 -0.623,-1.3249 -0.623,-1.7723 0,-0.2237 0.268,-1.4626 0.441,-2.168 h 2.667 c 0.087,-0.1807 0.13,-0.6195 0.087,-0.9722 2.537,1.5056 6.191,5.3082 7.611,7.958 0.753,-1.2389 0.935,-2.7874 0.935,-4.0693 0,-1.0152 -0.225,-1.5916 -0.892,-2.3917 l 2.667,-4.1124 c 0.044,0.3528 0.044,0.8862 0.312,1.2819 0.225,0.3527 0.805,0.7055 1.204,1.0152 0,0 2.095,1.0582 2.095,1.4109 0,0.1807 -1.29,2.125 -1.957,3.0972 z m -5.16,7.2095 c -0.624,0.7055 -1.472,1.5916 -2.096,1.9874 0.979,0.086 2.139,0.086 3.117,0 -0.268,-0.6195 -0.666,-1.368 -1.021,-1.9874 z"
       fill="#976f33"
       id="path14" />
    <path
       d="m 191.309,48.5036 -1.645,-13.662 c 0,-0.5764 2.138,-3.8026 2.58,-4.336 l 0.892,11.4079 c 0,2.2971 -0.225,4.1984 -1.827,6.5901 z"
       fill="#976f33"
       id="path15" />
    <path
       d="m 208.081,34.0846 c -0.225,0 -1.688,-0.8432 -2.58,-1.368 -0.442,0.4904 -1.291,1.2819 -1.42,1.2819 -0.226,0 -1.646,-0.8431 -2.451,-1.3679 0.355,-0.5764 1.16,-1.3249 1.827,-2.125 0.71,0.5334 2.096,1.4109 2.312,1.4109 0.13,0 1.117,-1.0151 1.602,-1.4109 l 2.719,1.5486 c -0.58,0.5764 -1.784,2.0304 -2,2.0304 z m 4.182,14.419 c -0.182,0 -0.311,-0.086 -0.441,-0.2237 -0.269,-0.1807 -0.624,-0.5764 -0.71,-0.8861 -0.269,-0.8431 -0.355,-1.8153 -0.624,-2.7014 -1.16,0.5334 -1.117,2.7014 -2.494,2.8304 l -5.385,-1.0582 v -0.4904 c 0,-0.1806 0.891,-2.4777 1.333,-3.8026 0.312,-0.9291 1.87,-1.8583 2.494,-2.211 0.892,-0.4904 1.87,-1.1098 2.762,-1.6777 -0.087,-0.3527 -0.355,-0.8431 -0.355,-1.0582 0,-0.215 1.29,-2.0819 1.914,-3.1401 0.58,3.0111 0.935,6.8998 1.783,10.3066 0.13,0.6195 0.71,0.5765 1.334,0.5765 h 0.935 v 3.5359 h -2.537 z m -1.913,-5.5319 c 0,-0.2237 -0.355,-2.254 -0.624,-3.3208 -0.312,0.086 -0.623,0.4387 -0.667,0.6194 -0.623,1.8583 -2.537,2.211 -3.428,2.7014 0.891,0.2667 2.493,0.6625 2.718,0.6625 h 2.001 z"
       fill="#976f33"
       id="path16" />
    <path
       d="m 223.702,35.1942 c -0.442,0.5334 -1.161,1.5056 -1.732,2.2111 -0.087,0.086 -0.087,0.1806 -0.087,0.3957 l 0.754,6.0997 -0.849,4.4221 c -0.225,0 -0.398,0.1806 -0.623,0.1806 h -7.612 v -3.5359 h 6.59 c 0.086,-0.5334 0.13,-0.8431 0.13,-1.0582 0,-0.2151 -0.225,-1.9873 -0.399,-2.9595 -0.225,-1.3249 -0.623,-3.9833 -1.203,-5.8846 -0.087,-0.2667 -0.805,-0.6195 -1.29,-1.0152 0.753,-1.5486 1.333,-2.7014 2.493,-4.2414 0,0.4388 0.044,1.0152 0.312,1.4109 0.398,0.5334 1.204,0.9292 1.87,1.3249 0.754,0.4904 1.602,1.0152 2.451,1.5056 -0.182,0.3527 -0.494,0.8001 -0.805,1.1528 z"
       fill="#976f33"
       id="path17" />
    <path
       d="m 229.572,48.5036 -1.558,-16.3634 c 0,-0.2237 0.312,-0.5764 0.493,-0.7485 0.581,-0.7484 1.42,-1.5916 2.044,-2.254 0.138,1.0152 0.225,2.125 0.312,3.1402 0.311,3.5789 0.848,9.0248 1.29,11.9413 0,0.086 0.225,0.2667 0.398,0.3097 0.442,0.086 0.849,0.4388 1.29,0.4388 h 0.754 v 3.5359 h -5.031 z"
       fill="#976f33"
       id="path18" />
    <path
       d="m 245.998,33.8607 c -2.493,0.8431 -5.074,1.6776 -7.697,2.5208 2.311,2.082 5.204,4.1983 7.429,7.1235 0.182,0.2236 0.312,0.5764 0.312,0.8431 l -1.022,4.1553 h -11.309 v -3.5359 h 9.439 l -4.988,-4.1554 c -0.087,0.1807 -0.398,0.4388 -0.494,0.6195 -0.268,-0.2667 -0.805,-0.7485 -1.203,-1.1959 -0.624,-0.6624 -1.645,-1.8153 -1.645,-2.0303 0,-0.2151 0.848,-3.0542 1.247,-4.5081 3.558,-1.0582 7.256,-2.2111 10.901,-3.3123 -0.182,1.0152 -0.537,2.3917 -0.978,3.4929 z"
       fill="#976f33"
       id="path19" />
    <path
       d="m 253.965,56.2808 c -1.914,0 -6.945,-1.4109 -7.698,-2.0304 0,-0.6194 0.493,-0.5334 0.623,-0.5334 0.225,0 3.204,0.6195 3.429,0.6195 2,0 8.945,-4.2931 8.945,-7.6483 0,-0.1807 -0.044,-0.7485 -0.225,-1.1959 h -0.087 c -0.892,2.4347 -1.914,3.0026 -3.645,3.0026 -2.312,0 -2.537,-1.411 -2.537,-3.2263 0,-0.2236 -0.044,-0.6624 0,-1.0582 0.086,-0.8001 2.493,-5.6179 4.632,-5.6179 1.377,0 2.624,2.6498 2.806,3.1832 0.129,0.3097 0.268,0.7055 0.355,1.1098 0.181,0.6625 0.311,1.9444 0.311,2.1681 0,3.8456 -2.45,11.2358 -6.901,11.2358 z m 2.182,-13.7996 c -0.312,0 -2.044,0.4904 -2.044,1.4109 0,0.7055 1.957,0.9722 2.182,0.9722 0.624,0 0.849,-0.043 1.645,-0.4388 0,-1.3679 -1.065,-1.9443 -1.783,-1.9443 z"
       fill="#976f33"
       id="path20" />
    <path
       d="m 13.4982,71.7065 c 0,5.0415 2.182,5.8588 4.0697,5.8588 2.208,0 4.0697,-0.9206 4.0697,-6.0997 v -8.1387 c 0,-0.5162 0.2164,-0.6194 0.5974,-0.6797 0.788,-0.0774 1.853,-0.1118 2.3985,-0.1118 -0.0519,1.084 -0.0779,2.6842 -0.0779,4.9383 v 3.8542 c 0,7.5967 -4.0437,8.6807 -7.3687,8.6807 C 12.563,80 10.0779,77.6427 10.0779,71.8097 V 66.252 c 0,-1.8153 -0.0259,-2.9337 -0.0779,-3.5015 0.4936,-0.0774 2.3725,-0.2151 2.918,-0.2151 0.4936,0 0.5715,0.2409 0.5715,1.5744 v 7.5967 z"
       fill="#976f33"
       id="path21" />
    <path
       d="m 32.6344,74.9327 c -0.6321,1.5744 -1.4201,3.5789 -1.7751,4.4478 -0.1126,0.2409 -0.329,0.3786 -0.762,0.3786 -0.5975,0 -1.801,-0.1635 -2.3985,-0.3527 v -0.1119 c 1.4201,-3.3122 5.6802,-13.4038 6.7193,-15.8644 l -0.2165,-0.5678 c 1.0131,-0.2151 2.5371,-0.3269 2.8661,-0.3269 0.2425,0 0.4936,0.1635 0.6235,0.4904 1.2555,2.9853 3.3336,8.3279 4.2861,10.6852 1.117,2.7703 1.7751,4.4737 2.3206,5.6179 v 0.1119 c -0.5975,0.1892 -2.4591,0.3269 -3.0566,0.3269 -0.4416,0 -0.6581,-0.1377 -0.9265,-0.8689 -0.4935,-1.3852 -0.8745,-2.4175 -1.498,-3.9575 H 32.643 Z m 5.5157,-2.2541 c -1.2556,-3.3638 -2.0782,-5.3942 -2.3726,-6.2631 -0.684,1.7894 -1.446,3.9316 -2.3725,6.2631 h 4.7537 z"
       fill="#976f33"
       id="path22" />
    <path
       d="m 48.3156,66.4412 c 0,-1.299 0,-2.2798 -0.0779,-3.4154 0.762,-0.1893 1.9656,-0.3528 3.0826,-0.3786 h 6.6327 c -0.1645,1.2217 -0.4936,1.7379 -0.8226,2.0906 -0.407,0.1635 -1.3335,0.1635 -2.563,0.1635 h -2.8402 v 4.8522 h 5.9487 c -0.2424,1.9013 -0.8486,2.254 -1.801,2.254 h -4.1477 v 5.3168 c 0.6321,0.1377 1.498,0.1893 2.5371,0.1893 1.117,0 3.1085,0 4.4247,-0.1118 l 0.0519,0.0516 c -0.2424,1.17 -0.7619,1.7895 -1.446,2.168 -0.381,0.0774 -1.6105,0.1377 -3.7147,0.1377 -2.4071,0 -4.2082,-0.1377 -4.8576,-0.2753 l -0.407,-0.5162 v -12.535 z"
       fill="#976f33"
       id="path23" />
    <path
       d="m 75.3487,62.2342 c 1.4461,0 3.2471,0.5936 3.9312,1.2991 0,0.6796 -0.433,1.7895 -1.3941,1.7378 -0.6321,-0.3269 -1.8011,-0.6796 -2.6756,-0.6796 -1.4461,0 -2.4851,0.6796 -2.4851,1.8755 0,1.2733 0.9005,1.9271 3.4376,3.3638 2.4591,1.3852 3.8532,2.4176 3.8532,4.9899 0,3.3639 -2.9441,5.1792 -6.1738,5.1792 -1.8877,0 -3.2731,-0.542 -3.9831,-1.0582 -0.459,-0.3011 -0.6235,-0.5678 -0.6235,-0.9206 0,-0.5678 0.407,-1.5744 0.6581,-1.7378 0.9785,0.6796 2.6237,1.2733 3.9311,1.2733 1.6366,0 2.7882,-0.7055 2.7882,-2.0906 0,-1.1959 -0.6321,-1.8755 -3.3856,-3.3639 -3.1692,-1.712 -3.7147,-3.4413 -3.7147,-5.0759 0,-1.8411 1.3075,-4.8006 5.8188,-4.8006 h 0.026 z"
       fill="#976f33"
       id="path24" />
    <path
       d="m 84.5185,66.467 c 0,-1.2991 0,-2.4175 -0.1126,-3.665 0.7361,-0.1118 2.5891,-0.3269 4.4767,-0.3269 4.1476,0 7.0397,1.4109 7.0397,5.5061 0,4.0951 -3.3856,5.3942 -5.1867,5.4286 -0.4329,0 -1.091,-0.0516 -1.3941,-0.2151 -0.407,-0.215 -0.9005,-0.9721 -0.9005,-1.8411 0.2165,0.0517 0.5975,0.0775 0.8745,0.0775 1.3681,0 3.0566,-0.7055 3.0566,-3.4413 0,-2.581 -1.7491,-3.3897 -3.3596,-3.3897 -0.3291,0 -0.7101,0.0258 -1.091,0.0774 v 11.6402 c 0,1.9013 0.0519,2.6842 0.0779,3.2262 -0.4676,0.1377 -2.1561,0.2151 -2.8921,0.2151 -0.407,0 -0.5974,-0.0774 -0.5974,-0.4904 V 66.467 Z"
       fill="#976f33"
       id="path25" />
    <path
       d="m 102.243,74.9327 c -0.632,1.5744 -1.42,3.5789 -1.775,4.4478 -0.112,0.2409 -0.329,0.3786 -0.7618,0.3786 -0.5974,0 -1.801,-0.1635 -2.3985,-0.3527 v -0.1119 c 1.4201,-3.3122 5.6803,-13.4038 6.7193,-15.8644 l -0.216,-0.5678 c 1.013,-0.2151 2.537,-0.3269 2.866,-0.3269 0.242,0 0.493,0.1635 0.623,0.4904 1.256,2.9853 3.334,8.3279 4.286,10.6852 1.117,2.7703 1.775,4.4737 2.321,5.6179 v 0.1119 c -0.598,0.1892 -2.459,0.3269 -3.057,0.3269 -0.441,0 -0.658,-0.1377 -0.926,-0.8689 -0.494,-1.3852 -0.875,-2.4175 -1.498,-3.9575 h -6.174 z m 5.516,-2.2541 c -1.256,-3.3638 -2.078,-5.3942 -2.373,-6.2631 -0.684,1.7894 -1.446,3.9316 -2.372,6.2631 h 4.754 z"
       fill="#976f33"
       id="path26" />
    <path
       d="m 131.129,76.9371 c -0.078,0.9205 -0.441,1.712 -0.9,2.1422 -0.684,0.4301 -2.13,0.9205 -3.957,0.9205 -6.226,0 -9.586,-3.5273 -9.586,-8.7065 0,-5.6179 4.286,-9.0592 9.69,-9.0592 2.597,0 4.589,0.869 5.022,1.3593 0.052,0.9206 -0.572,1.8411 -1.446,1.7121 -0.823,-0.3527 -2.104,-0.7313 -3.602,-0.7313 -3.308,0 -6.01,2.1422 -6.01,6.4869 0,3.6907 2.373,6.5126 6.72,6.5126 1.827,0 3.273,-0.4646 3.983,-0.6797 l 0.078,0.0517 z"
       fill="#976f33"
       id="path27" />
    <path
       d="m 135.528,66.4412 c 0,-1.299 0,-2.2798 -0.078,-3.4154 0.762,-0.1893 1.966,-0.3528 3.083,-0.3786 h 6.632 c -0.164,1.2217 -0.493,1.7379 -0.822,2.0906 -0.407,0.1635 -1.334,0.1635 -2.563,0.1635 h -2.84 v 4.8522 h 5.948 c -0.242,1.9013 -0.848,2.254 -1.801,2.254 h -4.147 v 5.3168 c 0.632,0.1377 1.498,0.1893 2.537,0.1893 1.117,0 3.108,0 4.424,-0.1118 l 0.052,0.0516 c -0.242,1.17 -0.762,1.7895 -1.446,2.168 -0.381,0.0774 -1.61,0.1377 -3.714,0.1377 -2.407,0 -4.209,-0.1377 -4.858,-0.2753 l -0.407,-0.5162 v -12.535 z"
       fill="#976f33"
       id="path28" />
    <path
       d="m 161.063,74.9327 c -0.632,1.5744 -1.42,3.5789 -1.775,4.4478 -0.112,0.2409 -0.329,0.3786 -0.762,0.3786 -0.597,0 -1.801,-0.1635 -2.398,-0.3527 v -0.1119 c 1.42,-3.3122 5.68,-13.4038 6.719,-15.8644 l -0.217,-0.5678 c 1.014,-0.2151 2.538,-0.3269 2.867,-0.3269 0.242,0 0.493,0.1635 0.623,0.4904 1.256,2.9853 3.334,8.3279 4.286,10.6852 1.117,2.7703 1.775,4.4737 2.321,5.6179 v 0.1119 c -0.598,0.1892 -2.459,0.3269 -3.057,0.3269 -0.441,0 -0.658,-0.1377 -0.926,-0.8689 -0.494,-1.3852 -0.875,-2.4175 -1.498,-3.9575 h -6.174 z m 5.516,-2.2541 c -1.256,-3.3638 -2.078,-5.3942 -2.373,-6.2631 -0.684,1.7894 -1.446,3.9316 -2.372,6.2631 h 4.754 z"
       fill="#976f33"
       id="path29" />
    <path
       d="m 187.438,74.0377 c 0,-1.1356 -0.052,-1.7636 -0.112,-2.4175 0.874,-0.1376 2.182,-0.4043 2.944,-0.4043 0.407,0 0.571,0.1634 0.571,0.7312 v 6.1341 c -0.519,0.4302 -1.42,1.0066 -2.156,1.3594 -0.952,0.2667 -2.433,0.5678 -3.741,0.5678 -4.589,0 -9.446,-2.0046 -9.446,-8.7581 0,-5.5835 4.338,-9.0076 9.689,-9.0076 2.979,0 4.996,0.9463 5.654,1.5744 0.026,1.0582 -0.762,1.8755 -1.636,1.712 -1.23,-0.5936 -2.65,-0.8947 -4.096,-0.8947 -3.36,0 -5.949,2.168 -5.949,6.4008 0,4.7232 3.169,6.8654 6.365,6.8654 0.762,0 1.584,-0.1635 1.913,-0.3011 v -3.5532 z"
       fill="#976f33"
       id="path30" />
    <path
       d="m 196.071,66.4412 c 0,-1.299 0,-2.2798 -0.078,-3.4154 0.762,-0.1893 1.966,-0.3528 3.083,-0.3786 h 6.632 c -0.164,1.2217 -0.493,1.7379 -0.822,2.0906 -0.407,0.1635 -1.334,0.1635 -2.563,0.1635 h -2.84 v 4.8522 h 5.948 c -0.242,1.9013 -0.848,2.254 -1.801,2.254 h -4.147 v 5.3168 c 0.632,0.1377 1.498,0.1893 2.537,0.1893 1.117,0 3.108,0 4.424,-0.1118 l 0.052,0.0516 c -0.242,1.17 -0.762,1.7895 -1.446,2.168 -0.381,0.0774 -1.61,0.1377 -3.714,0.1377 -2.407,0 -4.208,-0.1377 -4.858,-0.2753 l -0.407,-0.5162 v -12.535 z"
       fill="#976f33"
       id="path31" />
    <path
       d="m 210.22,62.8881 v -0.1376 c 0.519,-0.0774 2.866,-0.2151 3.359,-0.2151 0.269,0 0.494,0.1893 0.762,0.4904 0.875,1.2475 3.109,4.6371 5.075,7.6483 1.229,1.9271 2.242,3.4413 2.892,4.8264 -0.165,-2.0906 -0.139,-3.1488 -0.139,-4.4995 v -7.5709 c 0,-0.628 0.191,-0.7312 0.572,-0.7829 0.848,-0.0774 1.584,-0.1118 2.208,-0.1118 -0.052,1.17 -0.078,2.7358 -0.078,4.9899 v 11.9585 c -0.243,0.1118 -1.801,0.4301 -2.598,0.4301 -0.329,0 -0.494,-0.1118 -0.684,-0.3785 -1.42,-1.9529 -2.814,-4.0693 -4.97,-7.3816 -1.446,-2.2798 -2.243,-3.794 -3.36,-5.8846 0.165,2.7358 0.139,4.1468 0.139,5.5319 v 7.1063 c 0,0.5678 -0.165,0.6538 -0.598,0.7312 -0.493,0.0775 -1.368,0.1377 -2.182,0.1119 0.052,-1.084 0.078,-2.6584 0.078,-4.9383 v -11.253 l -0.494,-0.6797 z"
       fill="#976f33"
       id="path32" />
    <path
       d="m 244.206,76.9371 c -0.078,0.9205 -0.442,1.712 -0.901,2.1422 -0.684,0.4301 -2.13,0.9205 -3.957,0.9205 -6.225,0 -9.585,-3.5273 -9.585,-8.7065 0,-5.6179 4.286,-9.0592 9.689,-9.0592 2.598,0 4.589,0.869 5.022,1.3593 0.052,0.9206 -0.571,1.8411 -1.446,1.7121 -0.822,-0.3527 -2.104,-0.7313 -3.602,-0.7313 -3.307,0 -6.009,2.1422 -6.009,6.4869 0,3.6907 2.373,6.5126 6.719,6.5126 1.827,0 3.273,-0.4646 3.983,-0.6797 l 0.078,0.0517 z"
       fill="#976f33"
       id="path33" />
    <path
       d="m 252.977,72.8679 c 0,-0.5162 -0.026,-0.9206 -0.216,-1.2475 -1.472,-2.5207 -3.905,-6.1857 -5.516,-8.5172 v -0.0774 c 0.927,-0.2667 2.269,-0.4904 2.979,-0.4904 0.493,0 0.684,0.1377 1.368,1.2733 0.952,1.5228 2.321,3.88 3.498,5.833 1.178,-1.7895 3.793,-6.1599 4.312,-7.1063 1.013,0 1.914,0.1377 2.295,0.2667 0.433,0.1635 0.381,0.5162 0.026,1.1098 -0.684,1.1098 -4.719,7.0547 -5.022,7.5106 -0.217,0.3786 -0.303,0.7829 -0.303,1.1357 v 3.7166 c 0,1.8411 0.052,2.6584 0.078,3.252 -0.632,0.1376 -1.498,0.2151 -3.005,0.2151 -0.407,0 -0.494,-0.0775 -0.494,-0.4904 v -6.4008 z"
       fill="#976f33"
       id="path34" />
  </g>
  <defs
     id="defs34" />
</svg>
