<svg xmlns="http://www.w3.org/2000/svg" viewBox="0 0 1680 1120" width="1680" height="1120"><rect width="1680" height="1120" fill="#0a0e18"/><g font-family="monospace" fill="#cfe3fb">
  <text x="70" y="70" font-size="32" text-anchor="start" fill="#7fb0e0" letter-spacing="0.6">M-V — EXPLODED</text>
  <text x="70" y="104" font-size="18" text-anchor="start" fill="#cfe3fb" letter-spacing="0.6">broken into its stages — assembled reference at left, to human scale · JAXA / ISAS</text>
  <rect x="115" y="731.7647058823529" width="70" height="268.2352941176471" rx="6" fill="rgba(127,176,224,0.13)" stroke="#7fb0e0" stroke-width="1.5"/><rect x="119" y="513.1960784313725" width="62" height="217.56862745098042" rx="6" fill="rgba(127,176,224,0.13)" stroke="#7fb0e0" stroke-width="1.5"/><rect x="123" y="345.2941176470587" width="54" height="166.90196078431376" rx="6" fill="rgba(127,176,224,0.13)" stroke="#7fb0e0" stroke-width="1.5"/><polygon points="123,344.2941176470587 177,344.2941176470587 150,281.7058823529411" fill="rgba(127,176,224,0.13)" stroke="#7fb0e0" stroke-width="1.5"/><circle cx="209" cy="989.92" r="1.92" fill="#ffffff"/><rect x="207.92" y="991.072" width="2.16" height="6.6000000000000005" rx="0.72" fill="#ffffff"/><line x1="208.4" y1="996.64" x2="207.92" y2="1000" stroke="#ffffff" stroke-width="0.6000000000000001"/><line x1="209.6" y1="996.64" x2="210.08" y2="1000" stroke="#ffffff" stroke-width="0.6000000000000001"/><line x1="88" y1="1000" x2="88" y2="281.7058823529411" stroke="#cfe3fb" stroke-width="1"/><text x="82" y="640.8529411764705" font-size="17" text-anchor="end" fill="#ffffff" letter-spacing="0.6">31 m</text><text x="225" y="996" font-size="13" text-anchor="start" fill="#ffffff" letter-spacing="0.6">1.8 m</text><text x="150" y="1030" font-size="15" text-anchor="middle" fill="#cfe3fb" letter-spacing="0.6">ASSEMBLED · TO SCALE</text>
  <rect x="481" y="560" width="118" height="420" rx="12" fill="rgba(127,176,224,0.13)" stroke="#7fb0e0" stroke-width="2.5"/><rect x="487" y="566" width="106" height="176.79999999999995" rx="7" fill="rgba(127,176,224,0.10)" stroke="#7fb0e0" stroke-width="1"/><rect x="487" y="746.8" width="106" height="227.20000000000005" rx="7" fill="rgba(207,227,251,0.08)" stroke="#cfe3fb" stroke-width="1"/><text x="540" y="733.8" font-size="15" text-anchor="middle" fill="#cfe3fb" letter-spacing="0.6">SOLID</text><text x="540" y="772.8" font-size="15" text-anchor="middle" fill="#cfe3fb" letter-spacing="0.6">GRAIN</text><text x="623" y="770" font-size="20" text-anchor="start" fill="#ffffff" letter-spacing="0.6">Stage 2</text><text x="623" y="794" font-size="14" text-anchor="start" fill="#cfe3fb" letter-spacing="0.6">1× M-25 (solid)</text><rect x="486" y="170" width="108" height="300" rx="12" fill="rgba(127,176,224,0.13)" stroke="#7fb0e0" stroke-width="2.5"/><rect x="492" y="176" width="96" height="124" rx="7" fill="rgba(127,176,224,0.10)" stroke="#7fb0e0" stroke-width="1"/><rect x="492" y="304" width="96" height="160" rx="7" fill="rgba(207,227,251,0.08)" stroke="#cfe3fb" stroke-width="1"/><text x="540" y="291" font-size="15" text-anchor="middle" fill="#cfe3fb" letter-spacing="0.6">SOLID</text><text x="540" y="330" font-size="15" text-anchor="middle" fill="#cfe3fb" letter-spacing="0.6">GRAIN</text><text x="618" y="320" font-size="20" text-anchor="start" fill="#ffffff" letter-spacing="0.6">Stage 1</text><text x="618" y="344" font-size="14" text-anchor="start" fill="#cfe3fb" letter-spacing="0.6">1× M-14 (solid)</text><polygon points="1116,245 1184,245 1168,195 1132,195" fill="rgba(127,176,224,0.13)" stroke="#ffffff" stroke-width="2.5"/><polygon points="1132,195 1168,195 1150,155 " fill="rgba(127,176,224,0.13)" stroke="#ffffff" stroke-width="2.5"/><rect x="1134" y="205 " width="32" height="34" rx="4" fill="rgba(127,176,224,0.10)" stroke="#ffd27f" stroke-width="1.3"/><text x="1205" y="205" font-size="20" text-anchor="start" fill="#ffffff" letter-spacing="0.6">FAIRING · PAYLOAD</text><text x="1205" y="229" font-size="14" text-anchor="start" fill="#cfe3fb" letter-spacing="0.6">the cargo, and the shell it rides in</text><rect x="1109" y="305" width="82" height="200" rx="12" fill="rgba(127,176,224,0.13)" stroke="#7fb0e0" stroke-width="2.5"/><rect x="1115" y="311" width="70" height="80" rx="7" fill="rgba(127,176,224,0.10)" stroke="#7fb0e0" stroke-width="1"/><rect x="1115" y="395" width="70" height="104" rx="7" fill="rgba(207,227,251,0.08)" stroke="#cfe3fb" stroke-width="1"/><text x="1150" y="382" font-size="15" text-anchor="middle" fill="#cfe3fb" letter-spacing="0.6">SOLID</text><text x="1150" y="421" font-size="15" text-anchor="middle" fill="#cfe3fb" letter-spacing="0.6">GRAIN</text><text x="1215" y="405" font-size="20" text-anchor="start" fill="#ffffff" letter-spacing="0.6">Stage 3</text><text x="1215" y="429" font-size="14" text-anchor="start" fill="#cfe3fb" letter-spacing="0.6">1× M-34 (solid)</text>
  <text x="840" y="1075" font-size="18" text-anchor="middle" fill="#7fb0e0" letter-spacing="0.6">each stage burns, sheds, and falls away — the rocket equation made physical</text>
</g></svg>