<svg xmlns="http://www.w3.org/2000/svg" viewBox="0 0 1600 900" width="1600" height="900"><rect width="1600" height="900" fill="#0a0e18"/><g font-family="monospace" fill="#cfe3fb">
    <circle cx="110" cy="899" r="0.56" fill="rgba(255,255,255,0.61)"/><circle cx="367" cy="325" r="1.14" fill="rgba(255,255,255,0.31)"/><circle cx="552" cy="514" r="1.48" fill="rgba(255,255,255,0.60)"/><circle cx="484" cy="175" r="1.59" fill="rgba(255,255,255,0.52)"/><circle cx="76" cy="48" r="0.66" fill="rgba(255,255,255,0.16)"/><circle cx="737" cy="707" r="0.82" fill="rgba(255,255,255,0.48)"/><circle cx="935" cy="806" r="1.51" fill="rgba(255,255,255,0.42)"/><circle cx="263" cy="55" r="1.20" fill="rgba(255,255,255,0.34)"/><circle cx="1440" cy="465" r="1.11" fill="rgba(255,255,255,0.20)"/><circle cx="1045" cy="326" r="1.14" fill="rgba(255,255,255,0.17)"/><circle cx="1202" cy="98" r="0.74" fill="rgba(255,255,255,0.51)"/><circle cx="1282" cy="231" r="0.82" fill="rgba(255,255,255,0.60)"/><circle cx="621" cy="216" r="1.24" fill="rgba(255,255,255,0.32)"/><circle cx="730" cy="383" r="0.85" fill="rgba(255,255,255,0.25)"/><circle cx="900" cy="560" r="1.01" fill="rgba(255,255,255,0.51)"/><circle cx="86" cy="222" r="1.18" fill="rgba(255,255,255,0.62)"/><circle cx="1099" cy="242" r="0.50" fill="rgba(255,255,255,0.37)"/><circle cx="978" cy="896" r="1.12" fill="rgba(255,255,255,0.42)"/><circle cx="374" cy="48" r="1.25" fill="rgba(255,255,255,0.24)"/><circle cx="1584" cy="712" r="0.79" fill="rgba(255,255,255,0.27)"/><circle cx="1" cy="816" r="0.84" fill="rgba(255,255,255,0.42)"/><circle cx="1293" cy="602" r="1.16" fill="rgba(255,255,255,0.49)"/><circle cx="1280" cy="528" r="1.30" fill="rgba(255,255,255,0.33)"/><circle cx="1053" cy="323" r="0.69" fill="rgba(255,255,255,0.37)"/><circle cx="845" cy="133" r="0.72" fill="rgba(255,255,255,0.53)"/><circle cx="1516" cy="708" r="1.08" fill="rgba(255,255,255,0.30)"/><circle cx="293" cy="621" r="0.67" fill="rgba(255,255,255,0.38)"/><circle cx="1327" cy="241" r="0.84" fill="rgba(255,255,255,0.33)"/><circle cx="62" cy="614" r="0.65" fill="rgba(255,255,255,0.38)"/><circle cx="933" cy="645" r="0.42" fill="rgba(255,255,255,0.50)"/><circle cx="658" cy="138" r="0.65" fill="rgba(255,255,255,0.43)"/><circle cx="1590" cy="119" r="0.56" fill="rgba(255,255,255,0.59)"/><circle cx="673" cy="129" r="0.54" fill="rgba(255,255,255,0.27)"/><circle cx="412" cy="171" r="1.47" fill="rgba(255,255,255,0.62)"/><circle cx="741" cy="630" r="0.87" fill="rgba(255,255,255,0.46)"/><circle cx="1300" cy="613" r="0.72" fill="rgba(255,255,255,0.33)"/><circle cx="964" cy="850" r="1.00" fill="rgba(255,255,255,0.59)"/><circle cx="231" cy="851" r="0.54" fill="rgba(255,255,255,0.64)"/><circle cx="1280" cy="795" r="0.49" fill="rgba(255,255,255,0.18)"/><circle cx="25" cy="105" r="0.49" fill="rgba(255,255,255,0.17)"/><circle cx="485" cy="526" r="1.57" fill="rgba(255,255,255,0.35)"/><circle cx="229" cy="175" r="1.39" fill="rgba(255,255,255,0.44)"/><circle cx="292" cy="887" r="1.60" fill="rgba(255,255,255,0.43)"/><circle cx="671" cy="163" r="1.19" fill="rgba(255,255,255,0.46)"/><circle cx="86" cy="713" r="0.61" fill="rgba(255,255,255,0.42)"/><circle cx="1296" cy="328" r="1.31" fill="rgba(255,255,255,0.53)"/><circle cx="1107" cy="557" r="1.46" fill="rgba(255,255,255,0.26)"/><circle cx="795" cy="736" r="0.98" fill="rgba(255,255,255,0.56)"/><circle cx="661" cy="607" r="1.45" fill="rgba(255,255,255,0.16)"/><circle cx="1583" cy="829" r="0.62" fill="rgba(255,255,255,0.39)"/><circle cx="1210" cy="434" r="0.54" fill="rgba(255,255,255,0.37)"/><circle cx="1499" cy="421" r="0.51" fill="rgba(255,255,255,0.36)"/><circle cx="777" cy="616" r="0.61" fill="rgba(255,255,255,0.27)"/><circle cx="1259" cy="716" r="1.05" fill="rgba(255,255,255,0.58)"/><circle cx="794" cy="811" r="0.48" fill="rgba(255,255,255,0.22)"/><circle cx="625" cy="304" r="0.85" fill="rgba(255,255,255,0.24)"/><circle cx="278" cy="427" r="0.52" fill="rgba(255,255,255,0.20)"/><circle cx="968" cy="356" r="0.50" fill="rgba(255,255,255,0.59)"/><circle cx="1164" cy="664" r="0.47" fill="rgba(255,255,255,0.54)"/><circle cx="821" cy="360" r="0.74" fill="rgba(255,255,255,0.62)"/><circle cx="278" cy="493" r="1.44" fill="rgba(255,255,255,0.24)"/><circle cx="782" cy="466" r="0.88" fill="rgba(255,255,255,0.43)"/><circle cx="1395" cy="425" r="0.49" fill="rgba(255,255,255,0.40)"/><circle cx="1572" cy="279" r="1.11" fill="rgba(255,255,255,0.50)"/><circle cx="1462" cy="89" r="0.60" fill="rgba(255,255,255,0.20)"/><circle cx="469" cy="571" r="1.04" fill="rgba(255,255,255,0.61)"/><circle cx="1273" cy="558" r="1.44" fill="rgba(255,255,255,0.52)"/><circle cx="400" cy="876" r="1.55" fill="rgba(255,255,255,0.61)"/><circle cx="1044" cy="424" r="1.20" fill="rgba(255,255,255,0.28)"/><circle cx="330" cy="642" r="0.32" fill="rgba(255,255,255,0.37)"/><circle cx="929" cy="360" r="0.82" fill="rgba(255,255,255,0.54)"/><circle cx="1281" cy="818" r="0.75" fill="rgba(255,255,255,0.63)"/><circle cx="361" cy="459" r="1.58" fill="rgba(255,255,255,0.61)"/><circle cx="776" cy="537" r="1.30" fill="rgba(255,255,255,0.54)"/><circle cx="7" cy="845" r="1.46" fill="rgba(255,255,255,0.35)"/><circle cx="320" cy="494" r="1.03" fill="rgba(255,255,255,0.28)"/><circle cx="126" cy="480" r="0.42" fill="rgba(255,255,255,0.51)"/><circle cx="466" cy="730" r="0.92" fill="rgba(255,255,255,0.23)"/><circle cx="463" cy="846" r="1.53" fill="rgba(255,255,255,0.34)"/><circle cx="390" cy="32" r="0.32" fill="rgba(255,255,255,0.61)"/>
    <text x="80" y="90" font-size="30" text-anchor="start" fill="#7fb0e0" letter-spacing="1">THE MACHINE YOU FLY ONCE</text>
    <text x="80" y="128" font-size="20" text-anchor="start" fill="#cfe3fb" letter-spacing="1">for sixty years, the most expensive object of a mission — discarded</text>
    <g transform="translate(300,240)">
      <rect x="0" y="0" width="60" height="300" rx="8" fill="rgba(127,176,224,0.18)" stroke="#7fb0e0" stroke-width="2"/>
      <polygon points="0,0 60,0 30,-50" fill="#7fb0e0"/>
      <text x="30" y="340" font-size="16" text-anchor="middle" fill="#cfe3fb" letter-spacing="1">BUILT</text>
    </g>
    <text x="430" y="380" font-size="22" text-anchor="middle" fill="#ffd27f" letter-spacing="1">→  fly once  →</text>
    <g stroke="rgba(127,176,224,0.14)" stroke-width="1.6"><path d="M 620 300 Q 800 240 980 360 T 1340 420"/></g>
    <path d="M 1120 560 q 40 -30 80 0 q 40 30 80 0 q 40 -30 80 0" fill="none" stroke="#7fb0e0" stroke-width="2"/>
    <text x="1230" y="520" font-size="15" text-anchor="middle" fill="#cfe3fb" letter-spacing="1">the sea</text>
    <g transform="translate(1190,470) rotate(35)"><rect x="0" y="0" width="26" height="120" rx="4" fill="rgba(127,176,224,0.14)" stroke="#7fb0e0" stroke-width="1.6"/></g>
    <text x="760" y="720" font-size="18" text-anchor="middle" fill="#7fb0e0" letter-spacing="1">imagine scrapping a jetliner after a single flight — that was the business</text>
  </g></svg>