<svg xmlns="http://www.w3.org/2000/svg" viewBox="0 0 600 400" role="img" aria-label="Exploded wireframe of an EVA spacewalk suit (EMU / Orlan / Feitian style) — PLSS backpack, gold sun visor, hard upper torso, sublimator, CO2 scrubber, SAFER thruster pack.">
  <style>
    .stroke { stroke: rgba(255,255,255,0.85); stroke-width: 1.4; fill: none; }
    .fill-shell { fill: rgba(78,205,196,0.08); stroke: #4ecdc4; stroke-width: 1.5; }
    .fill-helmet { fill: rgba(255,255,255,0.06); stroke: rgba(255,255,255,0.85); stroke-width: 1.4; }
    .fill-visor { fill: rgba(255,200,80,0.35); stroke: #ffc850; stroke-width: 1.6; }
    .fill-glove { fill: rgba(255,107,107,0.15); stroke: #ff6b6b; stroke-width: 1.3; }
    .fill-plss { fill: rgba(123,156,255,0.18); stroke: #7b9cff; stroke-width: 1.5; }
    .fill-safer { fill: rgba(255,107,107,0.18); stroke: #ff6b6b; stroke-width: 1.3; }
    .fill-coolant { fill: rgba(78,205,196,0.25); stroke: #4ecdc4; stroke-width: 1.2; stroke-dasharray: 3 2; }
    .dashed { stroke: rgba(255,255,255,0.3); stroke-width: 1; stroke-dasharray: 4 3; fill: none; }
    .lead { stroke: rgba(255,255,255,0.4); stroke-width: 0.8; fill: none; }
    .label { fill: rgba(255,255,255,0.85); font-family: 'Space Mono', monospace; font-size: 10px; letter-spacing: 1.2px; }
    .label-accent { fill: #4ecdc4; font-family: 'Space Mono', monospace; font-size: 9.5px; letter-spacing: 1.2px; }
    .label-gold { fill: #ffc850; font-family: 'Space Mono', monospace; font-size: 9.5px; letter-spacing: 1.2px; }
    .label-red { fill: #ff6b6b; font-family: 'Space Mono', monospace; font-size: 9.5px; letter-spacing: 1.2px; }
    .label-blue { fill: #7b9cff; font-family: 'Space Mono', monospace; font-size: 9.5px; letter-spacing: 1.2px; }
    .sublabel { fill: rgba(255,255,255,0.55); font-family: 'Space Mono', monospace; font-size: 8px; letter-spacing: 1px; }
    .dim-star { fill: rgba(255,255,255,0.2); }
  </style>

  <circle class="dim-star" cx="50" cy="40" r="0.6" />
  <circle class="dim-star" cx="540" cy="50" r="0.5" />
  <circle class="dim-star" cx="80" cy="380" r="0.5" />

  <text class="label" x="40" y="28">EVA SUIT — A ONE-PERSON SPACECRAFT (EMU / ORLAN / FEITIAN / AxEMU)</text>

  <!-- ============== Suit figure: side view to show PLSS backpack ============== -->
  <!-- centred at x≈260, head y≈90, feet y≈340. Suit faces right. -->

  <!-- PLSS backpack (behind the torso) -->
  <rect class="fill-plss" x="180" y="130" width="60" height="100" rx="6" />
  <!-- Internal blocks inside PLSS -->
  <rect fill="rgba(123,156,255,0.35)" stroke="rgba(123,156,255,0.6)" stroke-width="0.7" x="186" y="136" width="48" height="20" />
  <rect fill="rgba(123,156,255,0.35)" stroke="rgba(123,156,255,0.6)" stroke-width="0.7" x="186" y="160" width="48" height="20" />
  <rect fill="rgba(123,156,255,0.35)" stroke="rgba(123,156,255,0.6)" stroke-width="0.7" x="186" y="184" width="48" height="20" />
  <rect fill="rgba(123,156,255,0.35)" stroke="rgba(123,156,255,0.6)" stroke-width="0.7" x="186" y="208" width="48" height="18" />

  <!-- SAFER backpack-bottom mini-thruster ring -->
  <rect class="fill-safer" x="174" y="226" width="72" height="14" rx="4" />
  <!-- Tiny thruster nozzles around SAFER -->
  <circle fill="#ff6b6b" cx="180" cy="240" r="1.8" />
  <circle fill="#ff6b6b" cx="200" cy="240" r="1.8" />
  <circle fill="#ff6b6b" cx="220" cy="240" r="1.8" />
  <circle fill="#ff6b6b" cx="240" cy="240" r="1.8" />
  <circle fill="#ff6b6b" cx="180" cy="226" r="1.6" />
  <circle fill="#ff6b6b" cx="240" cy="226" r="1.6" />

  <!-- Sublimator vent on side of PLSS -->
  <rect fill="rgba(78,205,196,0.4)" stroke="#4ecdc4" stroke-width="1" x="232" y="170" width="14" height="6" />
  <!-- Vapor wisp from sublimator -->
  <path class="fill-coolant" stroke="#4ecdc4" stroke-width="1" fill="none" d="M 248 173 Q 268 165 280 170 Q 290 175 304 170" />

  <!-- HUT (Hard Upper Torso) — between backpack and front -->
  <path class="fill-shell" d="M 240 130 Q 244 126 260 124 Q 280 124 296 126 Q 312 130 312 200 L 296 230 L 264 230 L 240 200 Z" />

  <!-- Helmet (sphere) -->
  <ellipse class="fill-helmet" cx="278" cy="100" rx="32" ry="34" />
  <!-- Gold sun visor (flipped down covering front half) -->
  <path class="fill-visor" d="M 268 78 Q 290 70 308 82 Q 312 110 286 124 Q 270 120 264 110 Z" />

  <!-- Neck ring -->
  <ellipse class="fill-shell" cx="276" cy="130" rx="14" ry="4" />

  <!-- Arms (one forward, one back) -->
  <path class="fill-shell" d="M 296 158 Q 326 168 348 196 Q 360 220 354 250 Q 350 260 340 264" />
  <path class="fill-shell" d="M 264 158 Q 250 170 244 196 Q 240 214 248 240 Q 254 250 264 254" />

  <!-- Wrist rings + gloves -->
  <ellipse class="fill-shell" cx="340" cy="264" rx="6" ry="3" />
  <ellipse class="fill-glove" cx="338" cy="278" rx="11" ry="11" />
  <ellipse class="fill-shell" cx="262" cy="252" rx="6" ry="3" />
  <ellipse class="fill-glove" cx="260" cy="264" rx="10" ry="10" />

  <!-- LTA (Lower Torso Assembly) + legs (down past PLSS) -->
  <path class="fill-shell" d="M 264 230 L 254 320 L 274 340 L 286 340 L 298 320 L 296 230 Z" />

  <!-- ============== Leader labels (with leader lines) ============== -->

  <!-- Helmet bubble -->
  <line class="lead" x1="248" y1="100" x2="160" y2="80" />
  <text class="label" x="156" y="80" text-anchor="end">HELMET BUBBLE</text>
  <text class="sublabel" x="156" y="92" text-anchor="end">polycarbonate · pressure-tight</text>

  <!-- Gold sun visor -->
  <line class="lead" x1="312" y1="92" x2="380" y2="60" />
  <text class="label-gold" x="384" y="60">GOLD SUN VISOR</text>
  <text class="sublabel" x="384" y="72">98% IR reflection · UV block</text>

  <!-- HUT -->
  <line class="lead" x1="312" y1="170" x2="380" y2="160" />
  <text class="label-accent" x="384" y="160">HARD UPPER TORSO</text>
  <text class="sublabel" x="384" y="172">fibreglass / composite shell</text>
  <text class="sublabel" x="384" y="184">4.3 psi pure O₂ (EMU) · 5.7 (Orlan)</text>

  <!-- PLSS -->
  <line class="lead" x1="180" y1="150" x2="100" y2="130" />
  <text class="label-blue" x="96" y="130" text-anchor="end">PLSS BACKPACK</text>
  <text class="sublabel" x="96" y="142" text-anchor="end">O₂ tank · LiOH/amine scrubber</text>
  <text class="sublabel" x="96" y="154" text-anchor="end">battery · fan · cooling water</text>

  <!-- Sublimator -->
  <line class="lead" x1="280" y1="175" x2="350" y2="200" />
  <text class="label-accent" x="354" y="202">SUBLIMATOR VENT</text>
  <text class="sublabel" x="354" y="214">~250 W metabolic heat → H₂O vapour</text>

  <!-- SAFER -->
  <line class="lead" x1="210" y1="240" x2="120" y2="270" />
  <text class="label-red" x="116" y="270" text-anchor="end">SAFER THRUSTERS</text>
  <text class="sublabel" x="116" y="282" text-anchor="end">1.4 kg N₂ · 24 nozzles · ~3 m/s rescue Δv</text>

  <!-- Gloves -->
  <line class="lead" x1="338" y1="290" x2="430" y2="320" />
  <text class="label-red" x="434" y="322">GLOVES</text>
  <text class="sublabel" x="434" y="334">most fatiguing piece of EVA gear</text>

  <!-- LTA -->
  <line class="lead" x1="278" y1="330" x2="186" y2="340" />
  <text class="label" x="180" y="342" text-anchor="end">LOWER TORSO ASSEMBLY</text>
  <text class="sublabel" x="180" y="354" text-anchor="end">soft fabric joints · feet not for walking</text>

  <!-- ============== Specs panel ============== -->
  <g transform="translate(456,100)">
    <rect x="0" y="0" width="124" height="180" fill="rgba(0,0,0,0.35)" stroke="rgba(255,255,255,0.15)" stroke-width="1" rx="4" />
    <text class="label-gold" x="8" y="14">EVA SUIT SPECS</text>
    <text class="sublabel" x="8" y="30">pressure ·</text>
    <text class="sublabel" x="8" y="42">  EMU 4.3 psi pure O₂</text>
    <text class="sublabel" x="8" y="54">  Orlan 5.7 psi pure O₂</text>
    <text class="sublabel" x="8" y="74">duration ·</text>
    <text class="sublabel" x="8" y="86">  ~7 h nominal</text>
    <text class="sublabel" x="8" y="98">  8.5 h max</text>
    <text class="sublabel" x="8" y="118">mass ·</text>
    <text class="sublabel" x="8" y="130">  EMU ~145 kg</text>
    <text class="sublabel" x="8" y="142">  Orlan ~110 kg</text>
    <text class="sublabel" x="8" y="162">heat dump · ~250 W</text>
    <text class="sublabel" x="8" y="174">CO₂ · LiOH or amine</text>
  </g>

  <!-- Bottom note -->
  <text class="sublabel" x="40" y="395">Pre-breathe O₂ for 4 h before egress to flush N₂ from blood (US 14.7 psi → suit 4.3 psi). Orlan crew skip pre-breathe with the 5.7 psi suit.</text>
</svg>
