<svg xmlns="http://www.w3.org/2000/svg" viewBox="0 0 1600 900" width="1600" height="900"><rect width="1600" height="900" fill="#0a0e18"/><g font-family="monospace" fill="#cfe3fb">
    <circle cx="397" cy="131" r="0.51" fill="rgba(255,255,255,0.44)"/><circle cx="1016" cy="308" r="0.71" fill="rgba(255,255,255,0.20)"/><circle cx="51" cy="160" r="0.75" fill="rgba(255,255,255,0.56)"/><circle cx="1410" cy="368" r="0.51" fill="rgba(255,255,255,0.63)"/><circle cx="820" cy="211" r="0.31" fill="rgba(255,255,255,0.48)"/><circle cx="956" cy="635" r="1.52" fill="rgba(255,255,255,0.35)"/><circle cx="29" cy="293" r="1.57" fill="rgba(255,255,255,0.47)"/><circle cx="1591" cy="676" r="1.13" fill="rgba(255,255,255,0.50)"/><circle cx="578" cy="88" r="1.54" fill="rgba(255,255,255,0.25)"/><circle cx="124" cy="833" r="0.60" fill="rgba(255,255,255,0.58)"/><circle cx="1490" cy="557" r="0.44" fill="rgba(255,255,255,0.29)"/><circle cx="1555" cy="61" r="0.77" fill="rgba(255,255,255,0.16)"/><circle cx="491" cy="794" r="0.45" fill="rgba(255,255,255,0.28)"/><circle cx="914" cy="515" r="1.49" fill="rgba(255,255,255,0.21)"/><circle cx="902" cy="102" r="0.69" fill="rgba(255,255,255,0.19)"/><circle cx="1263" cy="703" r="1.15" fill="rgba(255,255,255,0.19)"/><circle cx="640" cy="829" r="1.29" fill="rgba(255,255,255,0.34)"/><circle cx="414" cy="73" r="0.61" fill="rgba(255,255,255,0.27)"/><circle cx="1391" cy="721" r="1.34" fill="rgba(255,255,255,0.23)"/><circle cx="405" cy="499" r="0.78" fill="rgba(255,255,255,0.30)"/><circle cx="1273" cy="366" r="0.82" fill="rgba(255,255,255,0.25)"/><circle cx="1064" cy="434" r="0.50" fill="rgba(255,255,255,0.42)"/><circle cx="1344" cy="615" r="1.56" fill="rgba(255,255,255,0.27)"/><circle cx="653" cy="20" r="0.87" fill="rgba(255,255,255,0.36)"/><circle cx="456" cy="149" r="0.38" fill="rgba(255,255,255,0.50)"/><circle cx="990" cy="312" r="0.61" fill="rgba(255,255,255,0.61)"/><circle cx="1320" cy="603" r="1.50" fill="rgba(255,255,255,0.47)"/><circle cx="1306" cy="738" r="0.67" fill="rgba(255,255,255,0.53)"/><circle cx="256" cy="726" r="0.70" fill="rgba(255,255,255,0.27)"/><circle cx="547" cy="874" r="0.97" fill="rgba(255,255,255,0.39)"/><circle cx="639" cy="528" r="0.46" fill="rgba(255,255,255,0.18)"/><circle cx="322" cy="273" r="0.79" fill="rgba(255,255,255,0.35)"/><circle cx="983" cy="378" r="1.22" fill="rgba(255,255,255,0.46)"/><circle cx="1175" cy="190" r="1.28" fill="rgba(255,255,255,0.58)"/><circle cx="1355" cy="15" r="0.59" fill="rgba(255,255,255,0.54)"/><circle cx="799" cy="776" r="0.90" fill="rgba(255,255,255,0.38)"/><circle cx="1444" cy="239" r="1.52" fill="rgba(255,255,255,0.17)"/><circle cx="911" cy="501" r="0.64" fill="rgba(255,255,255,0.18)"/><circle cx="105" cy="575" r="1.12" fill="rgba(255,255,255,0.62)"/><circle cx="443" cy="214" r="0.48" fill="rgba(255,255,255,0.24)"/><circle cx="1390" cy="313" r="0.59" fill="rgba(255,255,255,0.37)"/><circle cx="902" cy="246" r="0.58" fill="rgba(255,255,255,0.35)"/><circle cx="1594" cy="472" r="0.95" fill="rgba(255,255,255,0.57)"/><circle cx="491" cy="685" r="1.07" fill="rgba(255,255,255,0.40)"/><circle cx="1513" cy="86" r="0.67" fill="rgba(255,255,255,0.33)"/><circle cx="893" cy="628" r="1.00" fill="rgba(255,255,255,0.56)"/><circle cx="722" cy="37" r="0.34" fill="rgba(255,255,255,0.34)"/><circle cx="1493" cy="223" r="0.43" fill="rgba(255,255,255,0.20)"/><circle cx="703" cy="866" r="0.94" fill="rgba(255,255,255,0.16)"/><circle cx="546" cy="459" r="0.95" fill="rgba(255,255,255,0.37)"/><circle cx="777" cy="851" r="0.51" fill="rgba(255,255,255,0.54)"/><circle cx="1456" cy="560" r="1.55" fill="rgba(255,255,255,0.52)"/><circle cx="1173" cy="409" r="0.78" fill="rgba(255,255,255,0.43)"/><circle cx="278" cy="853" r="0.64" fill="rgba(255,255,255,0.17)"/><circle cx="66" cy="162" r="0.80" fill="rgba(255,255,255,0.48)"/><circle cx="1303" cy="656" r="0.63" fill="rgba(255,255,255,0.65)"/><circle cx="410" cy="520" r="0.76" fill="rgba(255,255,255,0.39)"/><circle cx="1453" cy="631" r="0.31" fill="rgba(255,255,255,0.63)"/><circle cx="515" cy="479" r="0.31" fill="rgba(255,255,255,0.30)"/><circle cx="1583" cy="515" r="1.20" fill="rgba(255,255,255,0.29)"/><circle cx="1086" cy="723" r="0.66" fill="rgba(255,255,255,0.58)"/><circle cx="657" cy="12" r="0.84" fill="rgba(255,255,255,0.46)"/><circle cx="1208" cy="305" r="0.37" fill="rgba(255,255,255,0.61)"/><circle cx="763" cy="777" r="1.14" fill="rgba(255,255,255,0.53)"/><circle cx="1537" cy="798" r="1.42" fill="rgba(255,255,255,0.51)"/><circle cx="612" cy="400" r="0.81" fill="rgba(255,255,255,0.53)"/><circle cx="686" cy="411" r="1.48" fill="rgba(255,255,255,0.34)"/><circle cx="591" cy="641" r="1.11" fill="rgba(255,255,255,0.21)"/><circle cx="699" cy="567" r="0.38" fill="rgba(255,255,255,0.36)"/><circle cx="1366" cy="835" r="0.77" fill="rgba(255,255,255,0.23)"/><circle cx="107" cy="241" r="0.49" fill="rgba(255,255,255,0.44)"/><circle cx="1421" cy="435" r="1.37" fill="rgba(255,255,255,0.17)"/><circle cx="279" cy="557" r="0.38" fill="rgba(255,255,255,0.24)"/><circle cx="1034" cy="628" r="0.97" fill="rgba(255,255,255,0.46)"/><circle cx="918" cy="741" r="1.05" fill="rgba(255,255,255,0.48)"/><circle cx="1414" cy="581" r="1.22" fill="rgba(255,255,255,0.42)"/><circle cx="109" cy="10" r="1.06" fill="rgba(255,255,255,0.53)"/><circle cx="706" cy="267" r="0.37" fill="rgba(255,255,255,0.40)"/><circle cx="463" cy="32" r="0.58" fill="rgba(255,255,255,0.45)"/><circle cx="515" cy="181" r="1.13" fill="rgba(255,255,255,0.40)"/><circle cx="1483" cy="859" r="1.01" fill="rgba(255,255,255,0.63)"/><circle cx="377" cy="884" r="0.37" fill="rgba(255,255,255,0.41)"/><circle cx="87" cy="433" r="1.02" fill="rgba(255,255,255,0.21)"/><circle cx="852" cy="18" r="1.09" fill="rgba(255,255,255,0.59)"/><circle cx="550" cy="859" r="1.46" fill="rgba(255,255,255,0.61)"/><circle cx="747" cy="333" r="0.60" fill="rgba(255,255,255,0.63)"/><circle cx="1113" cy="314" r="1.48" fill="rgba(255,255,255,0.48)"/><circle cx="992" cy="789" r="1.20" fill="rgba(255,255,255,0.54)"/><circle cx="485" cy="755" r="0.37" fill="rgba(255,255,255,0.26)"/><circle cx="814" cy="378" r="1.37" fill="rgba(255,255,255,0.33)"/>
    <text x="80" y="90" font-size="30" text-anchor="start" fill="#7fb0e0" letter-spacing="1">NOTHING IN, NOTHING OUT</text>
    <text x="80" y="128" font-size="20" text-anchor="start" fill="#cfe3fb" letter-spacing="1">a sealed ecology that has to run, unbroken, for centuries</text>
    <g fill="none" stroke="#7fb0e0" stroke-width="2.5"><circle cx="780" cy="460" r="200"/></g>
    <circle cx="780" cy="250" r="9" fill="#ffd27f"/> <text x="780" y="232" font-size="17" text-anchor="middle" fill="#ffd27f" letter-spacing="1">PLANTS</text><circle cx="990" cy="470" r="9" fill="#cfe3fb"/> <text x="990" y="504" font-size="17" text-anchor="middle" fill="#cfe3fb" letter-spacing="1">OXYGEN</text><circle cx="780" cy="680" r="9" fill="#cfe3fb"/> <text x="780" y="714" font-size="17" text-anchor="middle" fill="#cfe3fb" letter-spacing="1">CREW</text><circle cx="570" cy="470" r="9" fill="#cfe3fb"/> <text x="570" y="504" font-size="17" text-anchor="middle" fill="#cfe3fb" letter-spacing="1">CO₂ + WASTE</text>
    <g stroke="#ffd27f" stroke-width="2" fill="none">
      <path d="M 830 300 A 200 200 0 0 1 960 410"/><polygon points="960,410 944,404 956,392" fill="#ffd27f"/>
      <path d="M 960 540 A 200 200 0 0 1 840 640"/><polygon points="840,640 856,632 844,624" fill="#ffd27f"/>
      <path d="M 720 640 A 200 200 0 0 1 600 530"/><polygon points="600,530 616,536 604,548" fill="#ffd27f"/>
      <path d="M 600 400 A 200 200 0 0 1 730 300"/><polygon points="730,300 714,306 726,318" fill="#ffd27f"/>
    </g>
    <text x="1230" y="420" font-size="15" text-anchor="start" fill="#cfe3fb" letter-spacing="1">water recycled</text>
    <text x="1230" y="452" font-size="15" text-anchor="start" fill="#cfe3fb" letter-spacing="1">food grown</text>
    <text x="1230" y="484" font-size="15" text-anchor="start" fill="#e08a6a" letter-spacing="1">no resupply, ever</text>
    <text x="780" y="800" font-size="18" text-anchor="middle" fill="#7fb0e0" letter-spacing="1">Biosphere 2 could not hold its own oxygen for two years</text>
  </g></svg>