<svg xmlns="http://www.w3.org/2000/svg" viewBox="0 0 1600 900" width="1600" height="900"><rect width="1600" height="900" fill="#0a0e18"/><g font-family="monospace" fill="#cfe3fb">
    <circle cx="1343" cy="539" r="0.90" fill="rgba(255,255,255,0.46)"/><circle cx="734" cy="689" r="1.07" fill="rgba(255,255,255,0.36)"/><circle cx="2" cy="882" r="1.33" fill="rgba(255,255,255,0.42)"/><circle cx="233" cy="392" r="1.22" fill="rgba(255,255,255,0.28)"/><circle cx="1510" cy="532" r="0.76" fill="rgba(255,255,255,0.34)"/><circle cx="236" cy="649" r="0.70" fill="rgba(255,255,255,0.31)"/><circle cx="446" cy="675" r="1.55" fill="rgba(255,255,255,0.43)"/><circle cx="610" cy="651" r="0.96" fill="rgba(255,255,255,0.62)"/><circle cx="517" cy="13" r="1.38" fill="rgba(255,255,255,0.23)"/><circle cx="423" cy="299" r="1.11" fill="rgba(255,255,255,0.22)"/><circle cx="176" cy="254" r="0.72" fill="rgba(255,255,255,0.49)"/><circle cx="116" cy="848" r="1.31" fill="rgba(255,255,255,0.33)"/><circle cx="849" cy="884" r="0.81" fill="rgba(255,255,255,0.22)"/><circle cx="1081" cy="196" r="0.92" fill="rgba(255,255,255,0.49)"/><circle cx="1477" cy="121" r="1.44" fill="rgba(255,255,255,0.35)"/><circle cx="275" cy="66" r="1.09" fill="rgba(255,255,255,0.52)"/><circle cx="705" cy="430" r="0.45" fill="rgba(255,255,255,0.21)"/><circle cx="305" cy="392" r="1.05" fill="rgba(255,255,255,0.47)"/><circle cx="1531" cy="186" r="0.86" fill="rgba(255,255,255,0.41)"/><circle cx="1473" cy="460" r="0.94" fill="rgba(255,255,255,0.64)"/><circle cx="801" cy="478" r="0.49" fill="rgba(255,255,255,0.37)"/><circle cx="498" cy="494" r="0.52" fill="rgba(255,255,255,0.20)"/><circle cx="1502" cy="433" r="1.47" fill="rgba(255,255,255,0.50)"/><circle cx="1383" cy="16" r="1.06" fill="rgba(255,255,255,0.46)"/><circle cx="860" cy="552" r="0.89" fill="rgba(255,255,255,0.59)"/><circle cx="177" cy="124" r="0.46" fill="rgba(255,255,255,0.27)"/><circle cx="1299" cy="580" r="0.43" fill="rgba(255,255,255,0.24)"/><circle cx="1553" cy="255" r="0.86" fill="rgba(255,255,255,0.20)"/><circle cx="421" cy="884" r="1.28" fill="rgba(255,255,255,0.28)"/><circle cx="1303" cy="866" r="0.53" fill="rgba(255,255,255,0.45)"/><circle cx="1248" cy="354" r="0.88" fill="rgba(255,255,255,0.27)"/><circle cx="142" cy="587" r="1.17" fill="rgba(255,255,255,0.22)"/><circle cx="1366" cy="358" r="1.42" fill="rgba(255,255,255,0.30)"/><circle cx="1036" cy="108" r="0.92" fill="rgba(255,255,255,0.24)"/><circle cx="1219" cy="650" r="0.51" fill="rgba(255,255,255,0.35)"/><circle cx="1398" cy="157" r="0.88" fill="rgba(255,255,255,0.18)"/><circle cx="1237" cy="304" r="1.58" fill="rgba(255,255,255,0.26)"/><circle cx="77" cy="690" r="1.48" fill="rgba(255,255,255,0.59)"/><circle cx="461" cy="80" r="0.64" fill="rgba(255,255,255,0.60)"/><circle cx="499" cy="264" r="1.11" fill="rgba(255,255,255,0.20)"/><circle cx="1430" cy="498" r="0.92" fill="rgba(255,255,255,0.17)"/><circle cx="909" cy="373" r="1.51" fill="rgba(255,255,255,0.56)"/><circle cx="4" cy="618" r="1.58" fill="rgba(255,255,255,0.44)"/><circle cx="837" cy="764" r="1.32" fill="rgba(255,255,255,0.61)"/><circle cx="525" cy="74" r="0.57" fill="rgba(255,255,255,0.37)"/><circle cx="1473" cy="429" r="1.03" fill="rgba(255,255,255,0.28)"/><circle cx="48" cy="549" r="1.55" fill="rgba(255,255,255,0.46)"/><circle cx="1086" cy="162" r="1.46" fill="rgba(255,255,255,0.49)"/><circle cx="981" cy="558" r="1.00" fill="rgba(255,255,255,0.22)"/><circle cx="858" cy="503" r="0.81" fill="rgba(255,255,255,0.31)"/><circle cx="997" cy="433" r="0.82" fill="rgba(255,255,255,0.29)"/><circle cx="1065" cy="121" r="1.55" fill="rgba(255,255,255,0.25)"/><circle cx="1094" cy="749" r="1.54" fill="rgba(255,255,255,0.57)"/><circle cx="383" cy="723" r="0.86" fill="rgba(255,255,255,0.32)"/><circle cx="57" cy="818" r="0.49" fill="rgba(255,255,255,0.21)"/><circle cx="870" cy="178" r="0.84" fill="rgba(255,255,255,0.47)"/><circle cx="897" cy="574" r="0.96" fill="rgba(255,255,255,0.62)"/><circle cx="609" cy="594" r="0.55" fill="rgba(255,255,255,0.62)"/><circle cx="292" cy="63" r="1.34" fill="rgba(255,255,255,0.19)"/><circle cx="1381" cy="399" r="0.44" fill="rgba(255,255,255,0.61)"/><circle cx="469" cy="148" r="0.81" fill="rgba(255,255,255,0.61)"/><circle cx="1529" cy="463" r="1.07" fill="rgba(255,255,255,0.25)"/><circle cx="164" cy="508" r="1.51" fill="rgba(255,255,255,0.43)"/><circle cx="1009" cy="34" r="1.45" fill="rgba(255,255,255,0.20)"/><circle cx="1571" cy="245" r="1.09" fill="rgba(255,255,255,0.26)"/><circle cx="1390" cy="587" r="1.42" fill="rgba(255,255,255,0.54)"/><circle cx="670" cy="250" r="1.21" fill="rgba(255,255,255,0.58)"/><circle cx="618" cy="226" r="0.40" fill="rgba(255,255,255,0.33)"/><circle cx="285" cy="384" r="0.56" fill="rgba(255,255,255,0.49)"/><circle cx="1400" cy="583" r="1.41" fill="rgba(255,255,255,0.39)"/><circle cx="92" cy="787" r="1.44" fill="rgba(255,255,255,0.63)"/><circle cx="1233" cy="128" r="0.35" fill="rgba(255,255,255,0.58)"/><circle cx="893" cy="210" r="0.89" fill="rgba(255,255,255,0.43)"/><circle cx="354" cy="9" r="0.78" fill="rgba(255,255,255,0.60)"/><circle cx="572" cy="672" r="0.90" fill="rgba(255,255,255,0.62)"/><circle cx="1144" cy="809" r="0.65" fill="rgba(255,255,255,0.30)"/><circle cx="1052" cy="566" r="0.50" fill="rgba(255,255,255,0.34)"/><circle cx="800" cy="523" r="0.37" fill="rgba(255,255,255,0.46)"/><circle cx="625" cy="11" r="1.35" fill="rgba(255,255,255,0.20)"/><circle cx="688" cy="541" r="1.33" fill="rgba(255,255,255,0.60)"/>
    <text x="80" y="90" font-size="30" text-anchor="start" fill="#7fb0e0" letter-spacing="1">WE HAVE ALREADY TOUCHED THEM</text>
    <text x="80" y="128" font-size="20" text-anchor="start" fill="#cfe3fb" letter-spacing="1">three robotic sample returns — and what they found</text>
    <polygon points="357,430 360,464 338,495 300,493 263,495 246,461 240,430 252,402 269,377 300,374 333,374 348,402" fill="rgba(127,176,224,0.14)" stroke="#ffd27f" stroke-width="2"/><text x="300" y="300" font-size="18" text-anchor="middle" fill="#ffd27f" letter-spacing="1">HAYABUSA</text><text x="300" y="540" font-size="15" text-anchor="middle" fill="#cfe3fb" letter-spacing="1">Itokawa · 2010</text><text x="300" y="566" font-size="14" text-anchor="middle" fill="rgba(207,227,251,0.75)" letter-spacing="1">first asteroid sample</text><polygon points="851,430 838,463 815,490 780,498 744,492 729,460 713,430 732,402 750,378 780,359 809,379 835,398" fill="rgba(127,176,224,0.14)" stroke="#7fb0e0" stroke-width="2"/><text x="780" y="300" font-size="18" text-anchor="middle" fill="#7fb0e0" letter-spacing="1">HAYABUSA2</text><text x="780" y="540" font-size="15" text-anchor="middle" fill="#cfe3fb" letter-spacing="1">Ryugu · 2020</text><text x="780" y="566" font-size="14" text-anchor="middle" fill="rgba(207,227,251,0.75)" letter-spacing="1">water-bearing clay</text><polygon points="1324,430 1315,462 1290,482 1260,490 1223,494 1206,461 1195,430 1212,402 1231,379 1260,368 1292,375 1311,400" fill="rgba(127,176,224,0.14)" stroke="#cfe3fb" stroke-width="2"/><text x="1260" y="300" font-size="18" text-anchor="middle" fill="#cfe3fb" letter-spacing="1">OSIRIS-REx</text><text x="1260" y="540" font-size="15" text-anchor="middle" fill="#cfe3fb" letter-spacing="1">Bennu · 2023</text><text x="1260" y="566" font-size="14" text-anchor="middle" fill="rgba(207,227,251,0.75)" letter-spacing="1">organics + rubble</text>
    <text x="800" y="720" font-size="18" text-anchor="middle" fill="#7fb0e0" letter-spacing="1">rubble piles of water-bearing rock — not solid mountains of metal</text>
  </g></svg>