<svg xmlns="http://www.w3.org/2000/svg" viewBox="0 0 1600 900" width="1600" height="900"><rect width="1600" height="900" fill="#0a0e18"/><g font-family="monospace" fill="#cfe3fb">
    <circle cx="1174" cy="889" r="0.51" fill="rgba(255,255,255,0.58)"/><circle cx="961" cy="856" r="1.53" fill="rgba(255,255,255,0.24)"/><circle cx="513" cy="140" r="1.47" fill="rgba(255,255,255,0.57)"/><circle cx="780" cy="490" r="0.32" fill="rgba(255,255,255,0.32)"/><circle cx="140" cy="352" r="0.55" fill="rgba(255,255,255,0.56)"/><circle cx="1293" cy="505" r="1.59" fill="rgba(255,255,255,0.43)"/><circle cx="389" cy="113" r="1.53" fill="rgba(255,255,255,0.32)"/><circle cx="836" cy="179" r="1.00" fill="rgba(255,255,255,0.60)"/><circle cx="462" cy="554" r="0.74" fill="rgba(255,255,255,0.32)"/><circle cx="451" cy="673" r="1.07" fill="rgba(255,255,255,0.50)"/><circle cx="1401" cy="468" r="1.15" fill="rgba(255,255,255,0.47)"/><circle cx="1416" cy="282" r="1.12" fill="rgba(255,255,255,0.50)"/><circle cx="677" cy="784" r="1.37" fill="rgba(255,255,255,0.27)"/><circle cx="1039" cy="38" r="0.87" fill="rgba(255,255,255,0.63)"/><circle cx="1519" cy="418" r="0.47" fill="rgba(255,255,255,0.16)"/><circle cx="861" cy="398" r="0.69" fill="rgba(255,255,255,0.41)"/><circle cx="1479" cy="350" r="0.74" fill="rgba(255,255,255,0.19)"/><circle cx="1426" cy="377" r="0.47" fill="rgba(255,255,255,0.34)"/><circle cx="1117" cy="288" r="1.19" fill="rgba(255,255,255,0.64)"/><circle cx="1396" cy="539" r="1.39" fill="rgba(255,255,255,0.63)"/><circle cx="1509" cy="540" r="1.23" fill="rgba(255,255,255,0.40)"/><circle cx="1567" cy="713" r="0.91" fill="rgba(255,255,255,0.48)"/><circle cx="126" cy="398" r="1.43" fill="rgba(255,255,255,0.48)"/><circle cx="1456" cy="480" r="1.20" fill="rgba(255,255,255,0.27)"/><circle cx="718" cy="572" r="1.12" fill="rgba(255,255,255,0.22)"/><circle cx="1526" cy="355" r="0.71" fill="rgba(255,255,255,0.39)"/><circle cx="270" cy="531" r="1.19" fill="rgba(255,255,255,0.52)"/><circle cx="1229" cy="758" r="1.03" fill="rgba(255,255,255,0.61)"/><circle cx="1550" cy="841" r="0.62" fill="rgba(255,255,255,0.37)"/><circle cx="618" cy="877" r="1.41" fill="rgba(255,255,255,0.42)"/><circle cx="860" cy="330" r="0.40" fill="rgba(255,255,255,0.28)"/><circle cx="1006" cy="895" r="1.29" fill="rgba(255,255,255,0.35)"/><circle cx="8" cy="333" r="1.15" fill="rgba(255,255,255,0.53)"/><circle cx="328" cy="377" r="0.99" fill="rgba(255,255,255,0.47)"/><circle cx="1193" cy="44" r="0.98" fill="rgba(255,255,255,0.26)"/><circle cx="555" cy="6" r="0.48" fill="rgba(255,255,255,0.47)"/><circle cx="1173" cy="0" r="1.51" fill="rgba(255,255,255,0.37)"/><circle cx="1002" cy="820" r="1.34" fill="rgba(255,255,255,0.55)"/><circle cx="967" cy="337" r="1.33" fill="rgba(255,255,255,0.57)"/><circle cx="1320" cy="877" r="0.93" fill="rgba(255,255,255,0.39)"/><circle cx="564" cy="486" r="0.41" fill="rgba(255,255,255,0.46)"/><circle cx="185" cy="385" r="0.88" fill="rgba(255,255,255,0.35)"/><circle cx="1428" cy="513" r="0.33" fill="rgba(255,255,255,0.42)"/><circle cx="1282" cy="677" r="1.30" fill="rgba(255,255,255,0.48)"/><circle cx="767" cy="801" r="0.79" fill="rgba(255,255,255,0.52)"/><circle cx="644" cy="689" r="1.18" fill="rgba(255,255,255,0.52)"/><circle cx="1445" cy="159" r="0.49" fill="rgba(255,255,255,0.57)"/><circle cx="956" cy="698" r="0.74" fill="rgba(255,255,255,0.20)"/><circle cx="608" cy="612" r="0.99" fill="rgba(255,255,255,0.20)"/><circle cx="79" cy="437" r="1.20" fill="rgba(255,255,255,0.17)"/><circle cx="836" cy="181" r="0.37" fill="rgba(255,255,255,0.51)"/><circle cx="202" cy="563" r="0.73" fill="rgba(255,255,255,0.25)"/><circle cx="1218" cy="344" r="0.91" fill="rgba(255,255,255,0.56)"/><circle cx="1060" cy="209" r="0.38" fill="rgba(255,255,255,0.53)"/><circle cx="367" cy="870" r="0.74" fill="rgba(255,255,255,0.22)"/><circle cx="1099" cy="284" r="0.95" fill="rgba(255,255,255,0.53)"/><circle cx="1555" cy="594" r="0.65" fill="rgba(255,255,255,0.58)"/><circle cx="1008" cy="697" r="0.32" fill="rgba(255,255,255,0.20)"/><circle cx="889" cy="162" r="0.58" fill="rgba(255,255,255,0.51)"/><circle cx="221" cy="738" r="1.60" fill="rgba(255,255,255,0.26)"/><circle cx="767" cy="646" r="0.80" fill="rgba(255,255,255,0.55)"/><circle cx="1599" cy="741" r="0.90" fill="rgba(255,255,255,0.29)"/><circle cx="576" cy="257" r="1.35" fill="rgba(255,255,255,0.64)"/><circle cx="1308" cy="247" r="1.25" fill="rgba(255,255,255,0.35)"/><circle cx="1489" cy="259" r="0.70" fill="rgba(255,255,255,0.47)"/><circle cx="786" cy="681" r="1.34" fill="rgba(255,255,255,0.25)"/><circle cx="1569" cy="848" r="1.13" fill="rgba(255,255,255,0.28)"/><circle cx="505" cy="307" r="1.46" fill="rgba(255,255,255,0.17)"/><circle cx="1359" cy="882" r="0.49" fill="rgba(255,255,255,0.31)"/><circle cx="682" cy="801" r="0.78" fill="rgba(255,255,255,0.47)"/><circle cx="1178" cy="279" r="1.25" fill="rgba(255,255,255,0.22)"/><circle cx="1347" cy="232" r="0.80" fill="rgba(255,255,255,0.21)"/><circle cx="804" cy="95" r="0.91" fill="rgba(255,255,255,0.31)"/><circle cx="1483" cy="654" r="0.48" fill="rgba(255,255,255,0.65)"/><circle cx="1116" cy="233" r="0.65" fill="rgba(255,255,255,0.20)"/><circle cx="420" cy="152" r="1.17" fill="rgba(255,255,255,0.61)"/><circle cx="1508" cy="172" r="1.37" fill="rgba(255,255,255,0.58)"/><circle cx="1226" cy="700" r="0.79" fill="rgba(255,255,255,0.64)"/><circle cx="1194" cy="318" r="1.46" fill="rgba(255,255,255,0.20)"/><circle cx="234" cy="834" r="0.99" fill="rgba(255,255,255,0.37)"/>
    <text x="80" y="90" font-size="30" text-anchor="start" fill="#7fb0e0" letter-spacing="1">SEVEN MINUTES, AND NOBODY DRIVING</text>
    <text x="80" y="128" font-size="20" text-anchor="start" fill="#cfe3fb" letter-spacing="1">Mars — too thin to parachute down, too thick to ignore</text>
    <path d="M 200 240 C 500 320, 900 560, 1300 740" fill="none" stroke="#7fb0e0" stroke-width="3"/>
    <circle cx="210" cy="250" r="7" fill="#ffffff"/> <text x="226" y="254" font-size="15" text-anchor="start" fill="#ffffff" letter-spacing="1">ENTRY  ~20,000 km/h</text><circle cx="470" cy="350" r="7" fill="#ffd27f"/> <text x="486" y="354" font-size="15" text-anchor="start" fill="#ffd27f" letter-spacing="1">PEAK HEATING</text><circle cx="720" cy="470" r="7" fill="#cfe3fb"/> <text x="736" y="474" font-size="15" text-anchor="start" fill="#cfe3fb" letter-spacing="1">SUPERSONIC PARACHUTE</text><circle cx="900" cy="560" r="7" fill="#cfe3fb"/> <text x="916" y="564" font-size="15" text-anchor="start" fill="#cfe3fb" letter-spacing="1">HEAT-SHIELD SEP</text><circle cx="1080" cy="650" r="7" fill="#cfe3fb"/> <text x="1096" y="654" font-size="15" text-anchor="start" fill="#cfe3fb" letter-spacing="1">POWERED DESCENT</text><circle cx="1280" cy="745" r="7" fill="#ffd27f"/> <text x="1296" y="749" font-size="15" text-anchor="start" fill="#ffd27f" letter-spacing="1">SKY CRANE → TOUCHDOWN</text>
    <text x="300" y="700" font-size="18" text-anchor="start" fill="#ffd27f" letter-spacing="1">total: about seven minutes</text>
    <text x="300" y="728" font-size="15" text-anchor="start" fill="#cfe3fb" letter-spacing="1">each step must fire on time, alone</text>
  </g></svg>